<svg width="1149" height="57" viewBox="0 0 1149 57" fill="none" xmlns="http://www.w3.org/2000/svg">
<g clip-path="url(#clip0_212_3)">
<path d="M28.5 28.5C28.5 23.2534 34.8786 19 42.7471 19C50.6155 19 56.9943 23.2534 56.9943 28.5C56.9943 33.7467 50.6155 38 42.7471 38C34.8786 38 28.5 33.7467 28.5 28.5Z" fill="#1ABCFE"/>
<path d="M0.00805664 47.5C0.00805664 42.2534 6.38665 38 14.2552 38H28.5023V47.5C28.5023 52.7467 22.1237 57 14.2552 57C6.38665 57 0.00805664 52.7467 0.00805664 47.5Z" fill="#0ACF83"/>
<path d="M28.5 0.000244141V19.0001H42.7471C50.6157 19.0001 56.9943 14.7469 56.9943 9.50011C56.9943 4.25336 50.6157 0.000244141 42.7471 0.000244141H28.5Z" fill="#FF7262"/>
<path d="M0.00805664 9.49999C0.00805664 14.7467 6.38665 19 14.2552 19H28.5023V0H14.2552C6.38665 0 0.00805664 4.25338 0.00805664 9.49999Z" fill="#F24E1E"/>
<path d="M0.00805664 28.5C0.00805664 33.7467 6.38665 38 14.2552 38H28.5023V19H14.2552C6.38665 19 0.00805664 23.2534 0.00805664 28.5Z" fill="#A259FF"/>
</g>
<g clip-path="url(#clip1_212_3)">
<path d="M95.7728 51.0293L91 0.0952148L148 0.197569L142.953 51.0293L119.715 56.9048L95.7728 51.0293Z" fill="#E34F26"/>
<path d="M119.715 51.9858V4.94604L143.188 5.01428L139.002 47.1004L119.715 51.9858Z" fill="#EF652A"/>
<path d="M136.733 16.6975L137.398 10.48H101.289L103.284 29.542H128.205L127.227 37.6722L119.246 39.5507L111.148 37.5012L110.718 32.6504H103.558L104.536 42.5571L119.246 46.1439L134.073 42.5571L136.068 23.2221H109.896L109.153 16.6975H136.733Z" fill="white"/>
</g>
<g clip-path="url(#clip2_212_3)">
<path d="M186.773 51.0289L182 0.0957031L239 0.198058L233.953 51.0289L210.715 56.9045L186.773 51.0289Z" fill="#1B73BA"/>
<path d="M210.715 51.9855V4.94653L234.188 5.01477L230.002 47.1005L210.715 51.9855Z" fill="#1C88C7"/>
<path d="M228.359 10.9587H192.25L193.228 17.1072H210.363L193.502 23.4271L194.48 29.3709H219.322L218.422 37.6717L210.011 39.1066L202.382 37.3987L201.795 32.6844H194.793L195.731 42.4887L210.754 46.1438L225.151 42.1472L226.99 22.9828H211.771L228.358 16.9708L228.359 10.9587Z" fill="white"/>
</g>
<g clip-path="url(#clip3_212_3)">
<path d="M277.773 51.0293L273 0.0952148L330 0.197569L324.953 51.0293L301.715 56.9048L277.773 51.0293Z" fill="#E9CA32"/>
<path d="M301.715 51.9858V4.94604L325.188 5.01428L321.002 47.1004L301.715 51.9858Z" fill="#FFDE25"/>
<path d="M299.202 10.5312H292.996V41.8397L288.169 41.0369V36.8223L282.423 36.0195V45.4522L299.202 49.2654V10.5312ZM303.857 10.5312H321.036L319.887 16.532H310.415V26.3793H319.887L318.738 46.255L303.857 49.2654V43.0439L313.911 40.0334L314.492 31.8049L303.857 33.1496V10.5312Z" fill="white"/>
</g>
<g clip-path="url(#clip4_212_3)">
<path d="M364 0H421V57H364V0Z" fill="#017ACB"/>
<path d="M391.369 21.1078H394.103V25.8282H386.711V46.8291L386.515 46.8825C386.248 46.9538 382.73 46.9538 381.973 46.8736L381.367 46.8202V25.8282H373.975V21.1078L376.317 21.0811C377.6 21.0633 380.895 21.0633 383.638 21.0811C386.381 21.0989 389.855 21.1078 391.369 21.1078ZM412.236 44.6025C411.15 45.7514 409.983 46.3927 408.041 46.9182C407.195 47.1497 407.053 47.1586 405.147 47.1497C403.241 47.1408 403.09 47.1408 402.163 46.9003C399.768 46.2858 397.835 45.0835 396.517 43.3824C396.143 42.9014 395.528 41.9039 395.528 41.7792C395.528 41.7436 395.617 41.6635 395.733 41.61C395.849 41.5566 396.089 41.4052 396.285 41.2894C396.481 41.1736 396.837 40.9599 397.078 40.8352C397.318 40.7105 398.013 40.3008 398.619 39.9357C399.224 39.5705 399.776 39.2766 399.839 39.2766C399.901 39.2766 400.017 39.4013 400.106 39.5527C400.64 40.4522 401.887 41.6011 402.769 41.993C403.312 42.2246 404.515 42.4828 405.094 42.4828C405.628 42.4828 406.608 42.2513 407.133 42.0108C407.694 41.7525 407.979 41.4942 408.318 40.9777C408.549 40.6125 408.576 40.5146 408.567 39.8199C408.567 39.1786 408.531 39.0005 408.353 38.7066C407.854 37.8872 407.178 37.4597 404.434 36.2485C401.602 34.9927 400.329 34.2446 399.296 33.2382C398.53 32.49 398.378 32.2852 397.897 31.35C397.274 30.1477 397.194 29.7558 397.185 27.9657C397.176 26.7099 397.203 26.3002 397.336 25.8727C397.523 25.2314 398.129 23.9935 398.405 23.6817C398.975 23.0138 399.18 22.8089 399.581 22.4794C400.792 21.4819 402.68 20.8228 404.488 20.7605C404.693 20.7605 405.37 20.7961 406.002 20.8407C407.819 20.9921 409.057 21.4374 410.25 22.3903C411.15 23.1028 412.512 24.7772 412.379 24.9999C412.29 25.1335 408.736 27.5025 408.505 27.5738C408.362 27.6183 408.264 27.5649 408.068 27.3333C406.857 25.8816 406.367 25.5699 405.191 25.4986C404.354 25.4452 403.909 25.5432 403.348 25.9172C402.76 26.3091 402.475 26.9058 402.475 27.7341C402.484 28.9453 402.947 29.5153 404.657 30.3614C405.761 30.9047 406.706 31.35 406.777 31.35C406.884 31.35 409.173 32.49 409.769 32.8463C412.548 34.4761 413.679 36.1505 413.973 39.0361C414.187 41.2092 413.572 43.1953 412.236 44.6025Z" fill="white"/>
</g>
<g clip-path="url(#clip5_212_3)">
<path d="M455.023 9.53947L483.034 0.145996L511.8 9.37246L507.142 44.2535L483.034 56.8199L459.303 44.4206L455.023 9.53947Z" fill="#E23237"/>
<path d="M511.8 9.37246L483.034 0.145996V56.8199L507.142 44.2745L511.8 9.37246Z" fill="#B52E31"/>
<path d="M483.079 6.76318L465.624 43.3142L472.145 43.2099L475.649 34.9643H491.307L495.144 43.3142L501.376 43.4186L483.079 6.76318ZM483.123 18.4737L489.022 30.0797H477.933L483.123 18.4737Z" fill="white"/>
</g>
<path d="M603 28.5051C603 25.1912 598.271 22.0508 591.021 20.1033C592.694 13.6184 591.951 8.45907 588.674 6.80726C587.919 6.4198 587.036 6.23627 586.072 6.23627V8.51005C586.606 8.51005 587.036 8.60182 587.396 8.77516C588.977 9.57047 589.662 12.5988 589.128 16.4938C589 17.4522 588.791 18.4617 588.535 19.4915C586.258 19.0021 583.772 18.6248 581.157 18.3801C579.589 16.4938 577.962 14.7808 576.324 13.2819C580.112 10.1924 583.667 8.49986 586.084 8.49986V6.22607C582.889 6.22607 578.706 8.22456 574.477 11.6913C570.248 8.24495 566.065 6.26686 562.87 6.26686V8.54064C565.275 8.54064 568.842 10.223 572.629 13.2921C571.003 14.791 569.376 16.4938 567.831 18.3801C565.205 18.6248 562.719 19.0021 560.442 19.5017C560.174 18.4821 559.977 17.493 559.838 16.5448C559.291 12.6498 559.965 9.62145 561.534 8.81594C561.882 8.63241 562.336 8.55084 562.87 8.55084V6.27706C561.894 6.27706 561.011 6.46059 560.244 6.84805C556.979 8.49986 556.247 13.649 557.932 20.1135C550.705 22.0712 546 25.2014 546 28.5051C546 31.8189 550.729 34.9593 557.979 36.9068C556.306 43.3917 557.049 48.551 560.326 50.2028C561.081 50.5903 561.964 50.7738 562.94 50.7738C566.135 50.7738 570.317 48.7754 574.546 45.3086C578.776 48.755 582.958 50.7331 586.153 50.7331C587.129 50.7331 588.012 50.5495 588.779 50.1621C592.044 48.5103 592.776 43.3611 591.091 36.8966C598.295 34.9491 603 31.8087 603 28.5051ZM587.873 21.7041C587.443 23.0194 586.908 24.3755 586.304 25.7317C585.828 24.9159 585.328 24.1002 584.782 23.2845C584.248 22.4688 583.679 21.6735 583.109 20.8986C584.759 21.1127 586.351 21.3778 587.873 21.7041ZM582.552 32.5632C581.645 33.9397 580.716 35.2448 579.752 36.4582C578.02 36.5907 576.266 36.6621 574.5 36.6621C572.746 36.6621 570.991 36.5907 569.272 36.4684C568.307 35.255 567.366 33.9601 566.46 32.5938C565.577 31.2581 564.775 29.902 564.043 28.5356C564.764 27.1693 565.577 25.803 566.448 24.4673C567.355 23.0908 568.284 21.7857 569.248 20.5723C570.98 20.4398 572.734 20.3684 574.5 20.3684C576.254 20.3684 578.009 20.4398 579.728 20.5621C580.693 21.7755 581.634 23.0704 582.54 24.4367C583.423 25.7724 584.225 27.1285 584.957 28.4949C584.225 29.8612 583.423 31.2275 582.552 32.5632ZM586.304 31.2377C586.932 32.604 587.466 33.9703 587.908 35.2958C586.386 35.6221 584.782 35.8974 583.121 36.1115C583.69 35.3264 584.259 34.5209 584.794 33.695C585.328 32.8793 585.828 32.0534 586.304 31.2377ZM574.523 42.1172C573.443 41.1383 572.362 40.0473 571.293 38.8543C572.339 38.8951 573.408 38.9257 574.488 38.9257C575.581 38.9257 576.661 38.9053 577.718 38.8543C576.673 40.0473 575.592 41.1383 574.523 42.1172ZM565.879 36.1115C564.229 35.8974 562.638 35.6323 561.116 35.306C561.545 33.9907 562.08 32.6346 562.684 31.2785C563.16 32.0942 563.66 32.9099 564.206 33.7256C564.752 34.5413 565.31 35.3366 565.879 36.1115ZM574.465 14.893C575.546 15.8718 576.626 16.9628 577.695 18.1558C576.649 18.115 575.581 18.0844 574.5 18.0844C573.408 18.0844 572.327 18.1048 571.27 18.1558C572.316 16.9628 573.396 15.8718 574.465 14.893ZM565.868 20.8986C565.298 21.6837 564.729 22.4892 564.194 23.3151C563.66 24.1308 563.16 24.9465 562.684 25.7622C562.057 24.3959 561.522 23.0296 561.081 21.7041C562.603 21.388 564.206 21.1127 565.868 20.8986ZM555.353 33.6644C551.24 32.1248 548.579 30.1059 548.579 28.5051C548.579 26.9042 551.24 24.8752 555.353 23.3457C556.352 22.9684 557.444 22.632 558.571 22.3159C559.233 24.3144 560.105 26.3944 561.185 28.5254C560.116 30.6463 559.257 32.7161 558.606 34.7044C557.456 34.3883 556.364 34.0417 555.353 33.6644ZM561.604 48.235C560.023 47.4396 559.338 44.4113 559.872 40.5163C560 39.5579 560.209 38.5484 560.465 37.5186C562.742 38.008 565.228 38.3853 567.843 38.63C569.411 40.5163 571.038 42.2293 572.676 43.7282C568.888 46.8177 565.333 48.5103 562.916 48.5103C562.394 48.5001 561.952 48.4083 561.604 48.235ZM589.162 40.4653C589.709 44.3603 589.035 47.3887 587.466 48.1942C587.118 48.3777 586.664 48.4593 586.13 48.4593C583.725 48.4593 580.158 46.7769 576.371 43.7078C577.997 42.2089 579.624 40.5061 581.169 38.6198C583.795 38.3751 586.281 37.9978 588.558 37.4982C588.826 38.528 589.035 39.5171 589.162 40.4653ZM593.636 33.6644C592.636 34.0417 591.544 34.3781 590.417 34.6942C589.755 32.6957 588.884 30.6157 587.803 28.4847C588.872 26.3638 589.732 24.294 590.382 22.3057C591.533 22.6218 592.625 22.9684 593.647 23.3457C597.76 24.8854 600.421 26.9042 600.421 28.5051C600.409 30.1059 597.748 32.1349 593.636 33.6644Z" fill="#61DAFB"/>
<path d="M574.488 33.1647C577.421 33.1647 579.798 31.0784 579.798 28.5049C579.798 25.9314 577.421 23.8452 574.488 23.8452C571.556 23.8452 569.179 25.9314 569.179 28.5049C569.179 31.0784 571.556 33.1647 574.488 33.1647Z" fill="#61DAFB"/>
<path d="M684.15 26.0314C684.15 22.9246 681.029 19.9802 676.245 18.1543C677.349 12.0743 676.858 7.23714 674.696 5.68846C674.198 5.32519 673.615 5.15311 672.979 5.15311V7.28494C673.332 7.28494 673.615 7.37098 673.853 7.53348C674.896 8.27913 675.348 11.1184 674.995 14.7702C674.911 15.6688 674.773 16.6152 674.604 17.5807C673.102 17.1219 671.461 16.7682 669.736 16.5387C668.701 14.7702 667.628 13.1641 666.546 11.7589C669.046 8.86228 671.392 7.27536 672.987 7.27536V5.14355C670.878 5.14355 668.118 7.01726 665.327 10.2675C662.537 7.03637 659.777 5.1818 657.668 5.1818V7.3136C659.255 7.3136 661.609 8.89097 664.108 11.7684C663.035 13.1737 661.962 14.7702 660.942 16.5387C659.209 16.7682 657.569 17.1219 656.066 17.5903C655.889 16.6343 655.759 15.707 655.667 14.818C655.307 11.1662 655.751 8.32693 656.787 7.57172C657.016 7.39964 657.315 7.32318 657.668 7.32318V5.19135C657.024 5.19135 656.441 5.36343 655.936 5.7267C653.781 7.27536 653.298 12.103 654.41 18.1639C649.641 19.9993 646.536 22.9342 646.536 26.0314C646.536 29.1385 649.656 32.0829 654.44 33.9086C653.336 39.9887 653.827 44.8258 655.989 46.3745C656.488 46.7377 657.07 46.9098 657.714 46.9098C659.823 46.9098 662.583 45.0361 665.373 41.7858C668.164 45.0171 670.924 46.8717 673.033 46.8717C673.677 46.8717 674.259 46.6996 674.765 46.3362C676.92 44.7875 677.403 39.9599 676.291 33.8992C681.045 32.0732 684.15 29.1289 684.15 26.0314ZM674.167 19.6552C673.884 20.8885 673.531 22.1597 673.132 23.4312C672.818 22.6666 672.488 21.9017 672.128 21.1369C671.775 20.3722 671.4 19.6265 671.024 18.9C672.113 19.1007 673.163 19.3493 674.167 19.6552ZM670.656 29.8362C670.058 31.1269 669.445 32.3505 668.808 33.4882C667.666 33.6124 666.508 33.6793 665.343 33.6793C664.185 33.6793 663.027 33.6124 661.893 33.4976C661.256 32.3599 660.635 31.1459 660.037 29.8649C659.455 28.6126 658.926 27.3411 658.443 26.0603C658.918 24.7792 659.455 23.4981 660.03 22.2459C660.628 20.9554 661.241 19.7317 661.877 18.594C663.02 18.4698 664.177 18.4029 665.343 18.4029C666.5 18.4029 667.658 18.4698 668.793 18.5845C669.429 19.7221 670.05 20.9361 670.648 22.2172C671.231 23.4695 671.76 24.7409 672.243 26.022C671.76 27.3029 671.231 28.584 670.656 29.8362ZM673.132 28.5936C673.535 29.8394 673.888 31.1091 674.19 32.3982C673.186 32.7041 672.128 32.9623 671.032 33.163C671.407 32.427 671.783 31.6718 672.136 30.8973C672.488 30.1327 672.818 29.3582 673.132 28.5936ZM665.358 38.7938C664.645 37.8759 663.932 36.853 663.227 35.7346C663.917 35.7729 664.622 35.8015 665.335 35.8015C666.056 35.8015 666.769 35.7825 667.467 35.7346C666.808 36.801 666.105 37.8222 665.358 38.7938ZM659.654 33.163C658.565 32.9623 657.515 32.7137 656.511 32.4078C656.794 31.1746 657.147 29.9031 657.546 28.6316C657.86 29.3965 658.19 30.1613 658.55 30.926C658.91 31.6908 659.278 32.4364 659.654 33.163ZM665.32 13.2693C666.033 14.187 666.746 15.2099 667.451 16.3284C666.761 16.2902 666.056 16.2615 665.343 16.2615C664.622 16.2615 663.909 16.2806 663.211 16.3284C663.869 15.2621 664.573 14.2409 665.32 13.2693ZM659.646 18.9C659.271 19.6361 658.895 20.3913 658.542 21.1655C658.19 21.9304 657.86 22.6952 657.546 23.4598C657.143 22.214 656.79 20.9443 656.488 19.6552C657.492 19.3588 658.55 19.1007 659.646 18.9ZM652.708 30.8687C649.994 29.4251 648.238 27.5325 648.238 26.0314C648.238 24.5306 649.994 22.6283 652.708 21.1944C653.367 20.8406 654.088 20.5251 654.831 20.2288C655.268 22.1024 655.843 24.0526 656.557 26.0507C655.851 28.0391 655.284 29.9796 654.854 31.8439C654.095 31.5474 653.375 31.2225 652.708 30.8687ZM656.833 44.5295C655.79 43.7839 655.337 40.9447 655.69 37.2927C655.775 36.3943 655.912 35.4477 656.081 34.4822C657.584 34.9411 659.225 35.2949 660.95 35.5243C661.985 37.2927 663.058 38.8987 664.139 40.304C661.64 43.2007 659.294 44.7875 657.699 44.7875C657.354 44.7781 657.063 44.692 656.833 44.5295ZM675.018 37.2451C675.379 40.8968 674.934 43.736 673.899 44.4912C673.669 44.6633 673.37 44.7398 673.017 44.7398C671.43 44.7398 669.077 43.1625 666.577 40.285C667.65 38.8797 668.724 37.2833 669.744 35.5146C671.476 35.2853 673.117 34.9315 674.62 34.4631C674.796 35.4287 674.934 36.356 675.018 37.2451ZM677.97 30.8687C677.311 31.2225 676.59 31.538 675.846 31.8343C675.409 29.9606 674.834 28.0104 674.121 26.0124C674.827 24.024 675.394 22.0834 675.823 20.2192C676.582 20.5156 677.303 20.8406 677.978 21.1944C680.692 22.6377 682.448 24.5306 682.448 26.0314C682.44 27.5325 680.684 29.4348 677.97 30.8687Z" fill="#61DAFB"/>
<path d="M665.335 30.4005C667.27 30.4005 668.839 28.4445 668.839 26.0315C668.839 23.6188 667.27 21.6628 665.335 21.6628C663.4 21.6628 661.831 23.6188 661.831 26.0315C661.831 28.4445 663.4 30.4005 665.335 30.4005ZM648.244 54.4321H647.087V56.9158H646.435V50.7761H648.065C648.619 50.7761 649.045 50.9336 649.343 51.2485C649.643 51.5631 649.793 52.0215 649.793 52.623C649.793 53.0054 649.709 53.3385 649.543 53.6226C649.378 53.9064 649.148 54.1187 648.853 54.2591L650.009 56.8651V56.9158H649.313L648.244 54.4321ZM647.087 53.7701H648.085C648.407 53.7701 648.663 53.6659 648.853 53.458C649.044 53.25 649.14 52.9716 649.14 52.623C649.14 52.2436 649.049 51.9526 648.866 51.7502C648.686 51.5478 648.424 51.4451 648.082 51.4424H647.087V53.7701ZM652.126 57.0002C651.63 57.0002 651.227 56.7978 650.916 56.3929C650.604 55.9853 650.449 55.4413 650.449 54.7611V54.6176C650.449 54.1651 650.518 53.7617 650.655 53.4075C650.795 53.0503 650.989 52.772 651.237 52.5725C651.487 52.3701 651.758 52.2688 652.049 52.2688C652.524 52.2688 652.894 52.4642 653.158 52.8549C653.422 53.2457 653.553 53.8051 653.553 54.5332V54.8579H651.075C651.084 55.3079 651.188 55.6719 651.389 55.9502C651.592 56.2256 651.849 56.3634 652.16 56.3634C652.381 56.3634 652.568 56.3072 652.721 56.1948C652.875 56.0823 653.009 55.9333 653.124 55.7478L653.506 56.1189C653.199 56.7063 652.74 57.0002 652.126 57.0002ZM652.049 52.9099C651.796 52.9099 651.584 53.0251 651.413 53.2555C651.241 53.4834 651.135 53.8038 651.095 54.217H652.928V54.158C652.91 53.7617 652.824 53.4552 652.671 53.2386C652.517 53.0195 652.31 52.9099 652.049 52.9099ZM656.54 56.9158C656.504 56.8258 656.474 56.6657 656.452 56.4351C656.161 56.8117 655.814 57.0002 655.41 57.0002C655.049 57.0002 654.753 56.8737 654.521 56.6206C654.291 56.3647 654.176 56.0415 654.176 55.6508C654.176 55.1758 654.32 54.8074 654.609 54.546C654.899 54.2816 655.308 54.1495 655.833 54.1495H656.442V53.7912C656.442 53.5185 656.376 53.3019 656.246 53.1418C656.115 52.9787 655.922 52.8973 655.667 52.8973C655.444 52.8973 655.257 52.9674 655.106 53.108C654.955 53.2485 654.879 53.4186 654.879 53.6183H654.25C654.25 53.3906 654.314 53.1713 654.443 52.9603C654.574 52.7468 654.75 52.5781 654.971 52.4543C655.194 52.3308 655.438 52.2688 655.704 52.2688C656.126 52.2688 656.456 52.4009 656.695 52.6653C656.934 52.9267 657.058 53.288 657.067 53.7489V55.8489C657.067 56.2679 657.11 56.6009 657.196 56.8483V56.9158H656.54ZM655.501 56.3213C655.698 56.3213 655.884 56.2581 656.06 56.1315C656.235 56.005 656.363 55.8406 656.442 55.6381V54.7021H655.951C655.185 54.7021 654.801 54.9817 654.801 55.5411C654.801 55.7856 654.867 55.977 654.997 56.1146C655.128 56.2523 655.296 56.3213 655.501 56.3213ZM659.516 56.3634C659.739 56.3634 659.934 56.279 660.101 56.1103C660.268 55.9417 660.36 55.7309 660.378 55.4778H660.97C660.959 55.7392 660.887 55.9881 660.754 56.2243C660.62 56.4605 660.442 56.6488 660.219 56.7893C659.998 56.9299 659.764 57.0002 659.516 57.0002C659.018 57.0002 658.621 56.7935 658.325 56.3803C658.032 55.9641 657.886 55.3964 657.886 54.6766V54.546C657.886 54.1018 657.951 53.7068 658.082 53.3611C658.213 53.0152 658.4 52.7468 658.643 52.5557C658.889 52.3643 659.179 52.2688 659.512 52.2688C659.923 52.2688 660.263 52.4221 660.534 52.7286C660.807 53.0349 660.952 53.4327 660.97 53.9218H660.378C660.36 53.6266 660.27 53.3848 660.108 53.1965C659.948 53.0054 659.749 52.9099 659.512 52.9099C659.194 52.9099 658.948 53.0531 658.772 53.34C658.598 53.6238 658.511 54.0358 658.511 54.5755V54.723C658.511 55.2487 658.598 55.6535 658.772 55.9374C658.945 56.2215 659.193 56.3634 659.516 56.3634ZM662.522 51.2485V52.3532H663.205V52.9562H662.522V55.7856C662.522 55.9684 662.553 56.1061 662.614 56.1988C662.675 56.2888 662.778 56.3339 662.925 56.3339C662.997 56.3339 663.096 56.3171 663.222 56.2833V56.9158C663.058 56.972 662.898 57.0002 662.742 57.0002C662.463 57.0002 662.252 56.8946 662.11 56.6839C661.968 56.4731 661.897 56.1736 661.897 55.7856V52.9562H661.23V52.3532H661.897V51.2485H662.522ZM669.54 56.9158H668.887L666.408 52.1846V56.9158H665.755V50.7761H666.408L668.894 55.5285V50.7761H669.54V56.9158ZM672.854 56.9158C672.818 56.8258 672.789 56.6657 672.766 56.4351C672.475 56.8117 672.128 57.0002 671.724 57.0002C671.364 57.0002 671.067 56.8737 670.835 56.6206C670.605 56.3647 670.49 56.0415 670.49 55.6508C670.49 55.1758 670.634 54.8074 670.923 54.546C671.214 54.2816 671.622 54.1495 672.147 54.1495H672.756V53.7912C672.756 53.5185 672.69 53.3019 672.56 53.1418C672.429 52.9787 672.236 52.8973 671.981 52.8973C671.758 52.8973 671.571 52.9674 671.42 53.108C671.269 53.2485 671.193 53.4186 671.193 53.6183H670.564C670.564 53.3906 670.629 53.1713 670.757 52.9603C670.888 52.7468 671.064 52.5781 671.285 52.4543C671.508 52.3308 671.753 52.2688 672.019 52.2688C672.44 52.2688 672.771 52.4009 673.01 52.6653C673.249 52.9267 673.372 53.288 673.382 53.7489V55.8489C673.382 56.2679 673.424 56.6009 673.51 56.8483V56.9158H672.854ZM671.816 56.3213C672.012 56.3213 672.198 56.2581 672.374 56.1315C672.55 56.005 672.677 55.8406 672.756 55.6381V54.7021H672.265C671.499 54.7021 671.116 54.9817 671.116 55.5411C671.116 55.7856 671.181 55.977 671.312 56.1146C671.443 56.2523 671.611 56.3213 671.816 56.3213ZM675.211 51.2485V52.3532H675.894V52.9562H675.211V55.7856C675.211 55.9684 675.242 56.1061 675.303 56.1988C675.363 56.2888 675.467 56.3339 675.614 56.3339C675.686 56.3339 675.785 56.3171 675.911 56.2833V56.9158C675.747 56.972 675.587 57.0002 675.431 57.0002C675.151 57.0002 674.941 56.8946 674.799 56.6839C674.657 56.4731 674.586 56.1736 674.586 55.7856V52.9562H673.919V52.3532H674.586V51.2485H675.211ZM677.308 56.9158H676.682V52.3532H677.308V56.9158ZM676.632 51.1429C676.632 51.0165 676.662 50.9097 676.723 50.8225C676.786 50.7352 676.878 50.6918 677 50.6918C677.122 50.6918 677.214 50.7352 677.278 50.8225C677.341 50.9097 677.372 51.0165 677.372 51.1429C677.372 51.2694 677.341 51.3748 677.278 51.4593C677.214 51.5435 677.122 51.5858 677 51.5858C676.878 51.5858 676.786 51.5435 676.723 51.4593C676.662 51.3748 676.632 51.2694 676.632 51.1429ZM679.52 55.8575L680.426 52.3532H681.065L679.753 56.9158H679.276L677.951 52.3532H678.59L679.52 55.8575ZM683.138 57.0002C682.642 57.0002 682.239 56.7978 681.928 56.3929C681.616 55.9853 681.461 55.4413 681.461 54.7611V54.6176C681.461 54.1651 681.53 53.7617 681.667 53.4075C681.807 53.0503 682.001 52.772 682.249 52.5725C682.499 52.3701 682.77 52.2688 683.06 52.2688C683.536 52.2688 683.906 52.4642 684.17 52.8549C684.434 53.2457 684.566 53.8051 684.566 54.5332V54.8579H682.087C682.096 55.3079 682.2 55.6719 682.401 55.9502C682.604 56.2256 682.861 56.3634 683.172 56.3634C683.393 56.3634 683.58 56.3072 683.734 56.1948C683.887 56.0823 684.021 55.9333 684.136 55.7478L684.518 56.1189C684.212 56.7063 683.752 57.0002 683.138 57.0002ZM683.06 52.9099C682.808 52.9099 682.596 53.0251 682.425 53.2555C682.253 53.4834 682.147 53.8038 682.107 54.217H683.94V54.158C683.922 53.7617 683.836 53.4552 683.683 53.2386C683.53 53.0195 683.322 52.9099 683.06 52.9099Z" fill="#61DAFB"/>
<g clip-path="url(#clip6_212_3)">
<path d="M756.256 0.0161133C741.822 0.0161133 742.723 6.30064 742.723 6.30064L742.739 12.8116H756.513V14.7664H737.268C737.268 14.7664 728.032 13.7147 728.032 28.3368C728.032 42.9594 736.094 42.4409 736.094 42.4409H740.905V35.6554C740.905 35.6554 740.646 27.5614 748.838 27.5614H762.499C762.499 27.5614 770.175 27.6859 770.175 20.1136V7.59331C770.175 7.59331 771.34 0.0161133 756.256 0.0161133ZM748.661 4.3946C748.986 4.39431 749.309 4.45846 749.61 4.58338C749.91 4.70831 750.184 4.89155 750.414 5.12263C750.644 5.35371 750.826 5.62809 750.951 5.93007C751.075 6.23204 751.139 6.55569 751.139 6.88249C751.139 7.20928 751.075 7.53293 750.951 7.8349C750.826 8.13688 750.644 8.41126 750.414 8.64234C750.184 8.87342 749.91 9.05666 749.61 9.18159C749.309 9.30651 748.986 9.37066 748.661 9.37037C748.335 9.37066 748.013 9.30651 747.712 9.18159C747.412 9.05666 747.138 8.87342 746.908 8.64234C746.678 8.41126 746.495 8.13688 746.371 7.8349C746.247 7.53293 746.183 7.20928 746.183 6.88249C746.183 6.55569 746.247 6.23204 746.371 5.93007C746.495 5.62809 746.678 5.35371 746.908 5.12263C747.138 4.89155 747.412 4.70831 747.712 4.58338C748.013 4.45846 748.335 4.39431 748.661 4.3946Z" fill="url(#paint0_linear_212_3)"/>
<path d="M756.666 56.8047C771.1 56.8047 770.199 50.5202 770.199 50.5202L770.183 44.0094H756.408V42.0547H775.653C775.653 42.0547 784.889 43.1064 784.889 28.4838C784.889 13.8614 776.828 14.38 776.828 14.38H772.017V21.1652C772.017 21.1652 772.276 29.2592 764.084 29.2592H750.422C750.422 29.2592 742.747 29.1347 742.747 36.7072V49.2277C742.747 49.2277 741.581 56.8047 756.666 56.8047H756.666ZM764.261 52.4267C763.935 52.4269 763.613 52.3628 763.312 52.2379C763.011 52.113 762.738 51.9297 762.508 51.6986C762.278 51.4675 762.095 51.1932 761.971 50.8912C761.847 50.5892 761.783 50.2656 761.783 49.9388C761.783 49.612 761.846 49.2883 761.971 48.9863C762.095 48.6843 762.278 48.4099 762.508 48.1788C762.738 47.9477 763.011 47.7644 763.312 47.6395C763.613 47.5145 763.935 47.4504 764.261 47.4507C764.586 47.4504 764.909 47.5145 765.209 47.6394C765.51 47.7644 765.784 47.9476 766.014 48.1787C766.244 48.4098 766.426 48.6842 766.551 48.9861C766.675 49.2881 766.739 49.6118 766.739 49.9385C766.739 50.2653 766.675 50.589 766.551 50.891C766.426 51.1929 766.244 51.4673 766.014 51.6984C765.784 51.9295 765.51 52.1127 765.209 52.2377C764.909 52.3626 764.586 52.4269 764.261 52.4267Z" fill="url(#paint1_linear_212_3)"/>
</g>
<g clip-path="url(#clip7_212_3)">
<path d="M836.034 35.2257C833.863 33.8971 831.546 32.6239 829.964 30.8298C826.633 27.6659 824.069 24.0038 822.316 20.1547C821.256 17.6515 820.893 14.9681 819.526 12.5621C818.098 10.8141 819.772 8.90464 822.233 8.34927C823.327 8.18505 825.254 7.38093 822.928 7.95639C820.843 9.14577 820.643 6.87546 822.78 6.73168C824.239 6.58115 824.776 5.65248 824.277 4.81649C822.71 4.02138 828.074 3.14901 825.375 1.96293C822.565 -0.39642 829.307 -0.85062 827.643 1.82937C827.245 3.8899 832.356 1.45087 831.169 3.83083C832.375 4.97395 835.683 4.09153 835.6 5.69423C837.356 5.78812 837.958 6.93678 839.605 7.02513C841.314 7.62553 844.41 8.09775 844.991 9.59529C843.296 10.6386 839.374 7.43983 839.184 10.3284C839.697 14.5963 839.566 18.9927 841.572 23.0567C842.521 25.5172 844.823 27.4541 846.901 29.3708C848.89 31.2476 851.583 32.5696 854.329 33.6819C856.737 34.5654 859.333 35.1509 861.959 35.5192C863.023 34.8859 864.902 32.531 866.562 33.5233C866.642 34.6404 863.268 35.8568 866.404 35.7333C868.247 35.3006 869.524 36.8409 871.041 35.4511C872.439 36.7392 876.85 34.6288 875.856 37.2613C874.51 37.9365 872.549 37.5286 871.203 38.4576C868.982 37.5944 867.214 39.229 864.755 39.0229C862.026 39.4033 859.247 39.5564 856.48 39.5595C851.939 39.2808 847.301 39.1632 842.982 37.9329C840.547 37.3827 838.173 36.3042 836.034 35.2257ZM839.869 36.5194C842.245 37.318 844.569 38.1607 847.173 38.4155C851.305 38.8619 855.573 39.5505 859.719 38.9231C857.842 38.2639 855.902 39.1791 854.032 38.4519C851.79 38.8268 849.384 38.3556 847.103 38.1233C844.511 37.2253 841.713 36.6079 839.286 35.4409C836.252 34.5791 840.854 36.5466 841.674 36.7065C843.57 37.5432 839.589 36.2769 839.027 35.9292C837.439 35.2359 837.237 35.3809 838.87 36.0844C839.199 36.2341 839.524 36.3915 839.869 36.5194ZM835.346 34.0331C837.65 34.6969 835.336 32.7734 834.282 32.8846C833.815 32.2535 832.496 31.8547 833.426 31.5161C831.753 31.9682 831.673 29.7977 830.887 30.1083C829.116 29.6733 830.198 28.1326 828.088 27.1859C827.896 26.1888 825.993 25.3246 825.388 23.8214C825.12 23.0512 823.237 20.8413 824.393 22.8981C825.377 24.878 827.109 26.5751 828.55 28.2686C829.668 29.8813 830.99 31.5682 833.027 32.5741C833.715 33.0872 834.377 33.8721 835.346 34.0331ZM828.713 28.366C829.134 28.9515 828.793 28.0952 828.713 28.366ZM838.106 34.8282C838.615 34.6504 837.372 34.604 838.106 34.8282ZM839.355 35.1829C839.225 34.6934 838.784 35.457 839.355 35.1829ZM840.92 35.6905C841.664 35.1384 839.771 35.3423 840.92 35.6905ZM843.602 36.8534C844.054 36.3335 842.153 36.6576 843.602 36.8534ZM838.452 34.0604C839.608 33.478 836.957 34.0523 838.452 34.0604ZM839.626 34.5157C839.592 34.2085 839.208 34.6537 839.626 34.5157ZM845.492 37.3644C846.435 37.8278 851 38.3793 848.142 37.5546C847.662 37.6329 842.842 36.4932 845.492 37.3644ZM836.179 31.7212C836.088 31.4134 834.714 31.3803 836.179 31.7212ZM838.909 32.9606C839.621 32.5743 837.434 32.6627 838.909 32.9606ZM841.206 34.0559C842.227 33.7569 839.553 33.7557 841.206 34.0559ZM835.067 30.7799C836.174 31.44 839.531 30.8647 836.762 30.3858C835.502 29.8635 832.663 29.5058 834.598 30.7007L835.067 30.7799ZM842.763 34.4341C843.225 33.8235 840.83 34.085 842.763 34.4341ZM840.425 32.9885C843.13 33.5834 838.149 31.6564 839.757 32.7689L840.114 32.8946L840.425 32.9885ZM845.113 35.0967C847.676 35.1157 842.798 34.8216 845.113 35.0967ZM834.081 29.6265C833.981 29.2551 833.45 29.6574 834.081 29.6265ZM849.448 36.9883C849.516 36.3179 848.612 37.4879 849.448 36.9883ZM838.455 31.7097C838.299 31.3564 837.654 31.695 838.455 31.7097ZM834.324 29.3934C835.795 29.3244 832.309 28.8893 834.324 29.3934ZM829.431 26.9328C829.248 26.3837 827.831 25.9465 829.431 26.9328ZM842.277 33.2754C842.15 33.3273 842.008 33.0361 842.277 33.2754ZM850.272 37.0928C850.247 36.7267 849.836 37.2306 850.272 37.0928ZM841.569 32.7067C841.714 32.2355 840.315 32.5638 841.569 32.7067ZM835.613 29.7694C836.708 29.6787 833.858 29.194 835.613 29.7694ZM845.689 34.6404C847.395 34.1146 844.026 34.3842 845.689 34.6404ZM840.448 31.8731C842.414 32.0699 838.109 30.832 840.016 31.7619L840.448 31.8731ZM847.279 35.1408C849.116 34.288 848.51 37.1402 850.394 35.3821C852.252 34.3265 848.79 36.6871 851.078 35.5703C852.735 34.7081 855.181 35.9791 856.726 36.3926C857.837 36.3507 858.917 37.1402 860.057 36.6597C862.25 36.1998 855.768 35.978 857.467 35.1634C855.461 35.6179 853.979 34.622 852.991 33.6218C850.74 33.2173 848.139 32.3226 847.015 30.7719C846.556 30.1909 847.676 30.8547 846.619 29.9032C845.263 28.9651 844.586 27.8991 843.676 26.7586C842.589 26.3077 842.46 24.979 842.351 26.7146C842.36 25.6191 841.038 24.8817 840.715 25.1876C840.709 24.1328 842.13 24.6618 841.135 23.8815C840.922 22.7882 840.217 21.6489 840.005 20.4142C839.677 19.8195 839.959 18.5452 838.882 19.8919C838.49 21.3158 838.752 18.143 839.362 19.1886C840.163 18.1215 839.074 18.2471 839.03 18.3945C839.551 17.4941 839.361 16.2162 838.893 16.7033C839.171 15.7483 839.333 13.1896 838.479 13.6438C838.997 12.6448 839.461 9.07405 837.21 10.436C836.299 10.446 834.719 10.6932 833.974 10.982C836.313 11.9856 833.738 11.3444 832.784 11.1846C832.66 12.1135 831.717 11.7125 830.537 11.7215C832.422 11.9027 829.62 13.2199 828.542 12.7082C827.138 13.2292 829.751 14.5319 828.569 14.935C828.715 15.5411 826.42 14.7155 826.599 16.1178C825.238 15.6712 826.413 17.7806 827.094 17.0671C829.411 17.5552 828.725 18.6665 828.783 19.7232C828.406 20.3381 826.92 18.2767 828.453 18.372C827.243 16.8436 827.115 17.819 826.11 18.5293C825.877 18.5804 828.672 19.5395 826.918 20.0131C828.461 20.199 828.507 21.2501 828.821 21.9152C829.749 22.667 829.558 21.0845 830.669 21.9888C829.965 21.1833 826.947 19.7195 829.377 20.189C829.364 19.379 828.937 18.7252 829.683 18.741C830.421 17.7023 828.91 21.3033 830.573 19.9826C831.032 19.8264 831.148 18.9428 831.975 20.0665C833.176 20.9863 832.409 21.652 830.714 20.8095C831.017 21.6103 832.981 21.8956 832.611 23.1475C833.002 24.2485 833.55 23.8428 834.027 23.7794C834.401 24.8488 834.615 24.0627 834.632 23.5529C836.345 23.8387 835.944 24.6269 836.481 25.1774C837.661 25.5917 834.79 22.3669 836.817 24.2076C838.95 25.7062 837.618 26.3314 835.704 26.0915C836.915 26.0153 837.305 27.3659 838.821 27.3183C840.202 27.8302 841.139 29.7944 838.757 28.9764C837.931 28.3964 835.006 27.6817 837.395 28.7839C839.6 29.5791 841.353 30.0537 843.48 31.0518C845.001 31.8968 845.659 32.865 846.236 33.0568C844.956 33.5323 842.381 32.6772 844.293 32.4156C843.1 32.2467 841.757 31.7768 842.9 32.9332C843.873 33.5653 846.343 33.4983 846.788 33.5697C846.412 34.2132 845.767 34.2643 846.802 34.314C845.647 34.7932 847.173 34.868 847.279 35.1408ZM844.918 29.9518C844.215 29.3798 844.033 28.3095 844.793 29.2402C845.183 29.3627 846.041 30.9907 844.918 29.9518ZM852.61 33.7533C853.048 33.7308 852.623 34.0124 852.61 33.7533ZM843.809 28.5496C844.062 29.2165 843.781 27.6852 843.809 28.5496ZM843.044 27.7498C844.158 28.1259 842.159 26.4211 843.044 27.7498ZM833.778 22.7749C834.298 22.667 834.035 23.4655 833.778 22.7749ZM841.153 25.8841C841.527 26.6659 841.472 24.9518 841.153 25.8841ZM835.944 23.0657C836.711 23.5485 835.577 22.5516 835.944 23.0657ZM840.413 24.1805C839.576 22.7215 841.007 23.3829 840.6 24.4195L840.413 24.1805ZM832.704 20.1806C832.33 19.7017 831.711 18.297 831.911 17.8679C832.09 18.5667 833.819 20.8741 832.758 18.8239C831.586 17.1055 834.16 19.381 834.425 19.8105C834.549 20.2364 833.701 19.6939 834.275 20.6939C833.228 19.5555 833.658 21.3227 832.704 20.1806ZM830.322 18.9031C830.867 19.6665 830.42 17.7896 830.322 18.9031ZM831.394 19.1907C832.26 20.362 831.905 18.3505 831.394 19.1907ZM828.815 17.6391C827.928 16.9524 827.286 16.3205 828.857 17.2129C829.462 17.2311 827.512 15.7757 829.003 16.7508C830.57 16.973 829.776 18.7503 828.815 17.6391ZM830.169 17.6119C830.685 17.2143 830.443 18.0027 830.169 17.6119ZM831.003 17.819C831.951 18.2972 830.222 16.6806 831.003 17.819ZM829.347 16.5879C826.768 14.8013 832.586 17.5211 829.768 16.9184L829.347 16.5879ZM836.736 19.927C835.619 19.407 836.439 16.2628 836.82 18.4127C837.905 18.1395 836.76 19.5239 837.568 19.5103C837.442 20.3833 837.079 20.6976 836.736 19.927ZM839.468 21.1843C839.698 21.8325 839.578 20.2364 839.468 21.1843ZM838.994 20.8185C839.116 20.4142 839.006 21.2954 838.994 20.8185ZM829.852 16.001C828.195 14.2225 834.667 17.7996 830.913 16.4519C830.521 16.3716 830.049 16.3432 829.852 16.001ZM835.115 18.1716C835.465 18.4193 834.958 16.674 835.115 18.1716ZM839.11 20.1659C839.419 19.3131 839.134 20.7303 839.11 20.1659ZM830.107 15.3225C831.091 15.1583 834.186 16.6671 831.344 15.753C831.028 15.481 830.354 15.6047 830.107 15.3225ZM838.561 18.6006C838.666 17.0693 839.15 17.6865 838.566 18.8205L838.561 18.6006ZM830.839 14.7891C831.241 14.3313 829.773 12.7196 831.05 14.2113C831.602 14.5522 832.647 14.7822 831.724 14.926C833.176 15.9219 831.37 15.1957 830.839 14.7891ZM838.143 18.1227C838.42 16.3783 838.388 19.1444 838.143 18.1227ZM830 13.1783C830.307 13.0761 830.163 13.4964 830 13.1783ZM831.906 14.0607C832.81 14.9532 832.396 13.2597 831.906 14.0607ZM837.28 16.3861C837.382 16.8336 837.275 16.0792 837.28 16.3861ZM836.968 15.8505C837.663 16.6082 836.223 14.4186 836.968 15.8505ZM836.511 14.9113C836.936 15.6544 836.386 14.3199 836.511 14.9113ZM837.256 13.9689C836.744 13.2675 837.903 10.8765 838.033 12.3593C837.492 13.5147 837.877 14.1605 838.252 12.6108C838.949 11.392 838.102 15.018 837.256 13.9689ZM838.022 10.4133C838.245 10.2002 838.072 10.6702 838.022 10.4133ZM836.743 30.0243C836.782 30.1547 836.44 29.8181 836.743 30.0243ZM839.378 31.0608C840.844 31.3543 840.837 30.884 839.512 30.7435C838.8 30.2283 836.55 29.6811 838.564 30.6801C838.697 30.943 839.118 30.9361 839.378 31.0608ZM834.175 28.3715C834.981 28.8408 837.216 29.6991 835.325 28.5508C835.962 27.9739 834.104 27.6672 834.721 27.281C833.152 26.5343 833.483 26.6011 834.582 26.625C832.698 25.969 834.854 26.0189 834.753 25.6827C834.026 25.5715 831.143 24.6856 832.839 25.7551C831.115 25.0719 832.428 26.0099 831.907 25.9113C830.144 25.5375 833.477 26.9559 831.628 26.6035C832.638 27.2265 834.349 28.2007 832.054 27.2627C831.753 27.6013 833.697 28.1146 834.175 28.3715ZM836.93 29.604C840.281 30.4435 835.287 28.5766 836.93 29.604ZM851.039 36.2531C851.082 35.7355 850.581 36.6949 851.039 36.2531ZM852.489 36.7278C853.262 36.1457 852.521 37.6566 853.77 36.5852C853.783 35.8182 853.732 35.3653 852.335 36.2973C851.949 36.4639 851.777 37.1693 852.489 36.7278ZM829.47 25.4812C829.233 24.755 827.806 24.7582 829.47 25.4812ZM831.018 26.2704C830.443 25.5287 828.966 25.5988 831.018 26.2704ZM839.828 30.4038C840.689 30.9986 843.778 30.84 840.872 30.4776C840.442 29.9825 838.141 30.1015 839.828 30.4038ZM851.937 36.223C853.26 35.3586 850.654 36.6081 851.937 36.223ZM854.69 37.6942C854.699 37.4167 854.12 37.8155 854.69 37.6942ZM854.695 37.3057C856.161 36.0983 853.275 37.377 854.695 37.3057ZM825.661 23.0003C824.412 21.6138 824.885 20.9907 823.68 19.8579C823.451 18.9914 821.613 17.0272 822.729 19.108C823.751 20.3258 824.054 22.2105 825.661 23.0003ZM854.235 36.9216C856.933 35.5656 853.128 36.3314 854.235 36.9216ZM856.293 37.549C857.645 36.6472 855.439 37.3609 856.293 37.549ZM829.011 23.9482C829.397 23.5007 828.013 23.8905 829.011 23.9482ZM855.864 37.1208C857.171 36.4652 855.562 36.5658 855.627 37.1808L855.864 37.1208ZM838.118 28.4191C838.073 27.9752 837.427 28.4565 838.118 28.4191ZM839.215 28.9097C838.865 28.3614 838.679 28.9958 839.215 28.9097ZM857.962 37.5639C859.638 36.6235 856.947 37.3836 857.611 37.7429L857.962 37.5639ZM857.32 37.3226C858.685 36.4333 855.88 37.7167 857.32 37.3226ZM860.598 39.0204C861.515 38.5435 859.485 38.8664 860.598 39.0204ZM829.852 23.6254C831.079 23.8394 834.759 25.978 832.589 23.7739C831.477 23.5179 832.143 21.4029 831.009 21.7768C831.771 22.7667 831.635 23.1868 830.036 22.5641C828.029 21.8005 828.908 22.9414 829.302 23.2563C828.765 23.3514 830.009 23.6176 829.851 23.6253L829.852 23.6254ZM824.256 20.1877C824.476 19.4796 822.231 16.2955 823.196 18.5916C823.544 19.073 823.508 19.9847 824.256 20.1877ZM834.527 25.1138C834.496 25.0549 833.893 24.7027 834.527 25.1138ZM836.083 25.3962C836.083 24.6461 834.362 25.0913 836.083 25.3962ZM849.58 32.0146C849.322 31.5024 848.562 32.0032 849.58 32.0146ZM850.228 32.3826C850.131 32.096 849.853 32.4382 850.228 32.3826ZM855.577 35.0049C856.091 34.7093 854.935 34.9666 855.577 35.0049ZM827.05 20.7428C828.522 20.2997 825.473 20.4266 827.05 20.7428ZM848.392 31.2022C848.374 30.4615 847.453 31.387 848.392 31.2022ZM826.469 19.688C827.414 19.4403 825.594 19.5252 826.469 19.688ZM829.212 20.7222C829.196 20.4788 828.923 20.8152 829.212 20.7222ZM862.678 36.6881C863.893 36.4967 866.664 37.1697 867.111 36.438C865.635 36.4096 862.005 35.6267 861.833 36.6235L862.156 36.6633L862.678 36.6881H862.678ZM830.084 20.8933C830.107 20.1422 829.332 20.8651 830.084 20.8933ZM822.872 17C822.545 15.5692 821.626 16.7835 822.872 17ZM824.591 17.3364C824.613 16.8765 823.017 16.9229 824.591 17.3364ZM825.574 17.7125C825.353 17.9377 825.29 17.5334 825.574 17.7125ZM831.761 20.7992C832.052 20.5907 831.071 20.6452 831.761 20.7992ZM824.921 16.8653C824.753 15.7847 822.927 16.7033 824.921 16.8653ZM821.393 15.0845C821.343 14.5861 821.049 15.2724 821.393 15.0845ZM821.918 14.7767C821.832 14.1851 821.467 14.8512 821.918 14.7767ZM824.816 16.1221C826.042 15.7483 822.584 15.3473 824.565 16.052L824.816 16.1221ZM863.608 34.7648C864.393 34.2052 862.612 34.5915 863.608 34.7648ZM868.295 36.6542C868.61 35.9316 867.503 36.7494 868.295 36.6542ZM825.112 14.9407C825.242 14.2409 824.14 15.08 825.112 14.9407ZM820.988 12.791C820.766 11.8032 820.797 10.0689 822.915 10.6546C820.088 11.0918 824.874 13.3898 824.269 11.5753C825.459 11.6208 826.596 11.0284 825.971 11.9264C828.316 11.726 829.939 10.1448 832.203 10.3668C833.966 10.1846 835.894 10.0474 837.794 9.49465C839.356 9.40734 840.86 8.09896 840.004 7.32308C837.874 7.18276 835.643 7.38994 833.289 7.75476C830.68 8.17604 828.31 8.97791 825.677 9.32246C823.11 9.59096 826.193 10.0609 825.457 10.1662C824.119 10.5276 827.055 10.7712 825.284 11.1528C824.191 10.991 823.052 10.6987 823.52 9.8016C821.062 10.0507 818.901 10.8436 820.844 12.7896L820.988 12.7906L820.988 12.791ZM826.912 10.4438C827.487 8.79238 829.999 11.8032 827.856 10.6636C827.601 10.5139 827.178 10.3927 826.912 10.4438ZM827.024 9.64275C827.856 9.16153 827.465 9.91368 827.024 9.64275ZM828.08 9.65661C828.156 8.89649 830.498 10.0587 828.466 9.92962L828.08 9.65661ZM829.524 9.20466C830.053 8.72413 829.677 9.63045 829.524 9.20466ZM829.894 9.01221C830.773 8.19094 834.869 8.48751 831.871 8.93149C831.067 8.46031 830.452 9.20899 829.894 9.01221ZM835.24 8.37092C837.897 9.16725 835.108 6.12677 835.24 8.37092ZM836.757 8.364C837.312 7.23369 838.91 7.90997 837.015 8.13638C837.056 8.25763 836.958 8.72102 836.757 8.364ZM824.514 14.3608C826.171 13.5712 822.755 13.6756 824.514 14.3608ZM825.74 14.6248C826.321 14.1446 824.476 14.4299 825.74 14.6248ZM822.129 12.6323C823.076 12.0658 821.008 12.4172 822.129 12.6323ZM871.061 36.448C871.089 35.791 870.338 36.7435 871.061 36.448ZM866.089 33.8075C866.23 33.0523 865.45 33.8733 866.089 33.8075ZM872.428 36.703C873.752 36.7065 876.439 36.3822 873.559 36.3834C873.107 36.438 870.926 36.4267 872.428 36.703ZM826.818 14.1612C827.889 14.1046 828.493 13.2424 826.609 13.2913C823.69 13.0569 829.185 14.0696 826.235 13.7796C825.839 13.9835 826.794 14.2178 826.818 14.1612ZM827.761 14.5329C827.649 13.9982 827.429 14.817 827.761 14.5329ZM828.88 12.2107C829.345 11.762 828.237 12.0906 828.88 12.2107ZM825.316 7.57685C827.229 7.07172 829.844 6.50302 830.747 7.8263C829.828 6.96658 830.376 6.11915 831.244 7.37764C832.471 8.64982 833.085 6.79889 832.287 6.37172C833.198 7.25067 834.231 7.66658 832.896 6.42749C834.348 5.06923 829.991 6.60523 829.001 6.58929C828.525 6.75559 824.083 7.47049 825.316 7.57685ZM826.437 5.90747C827.528 5.26757 830.21 6.28909 828.489 5.27069C828.32 5.15532 824.721 6.04328 826.437 5.90747ZM830.414 6.03531C831.689 6.06025 829.863 4.70095 831.383 5.31711C831.134 4.68293 829.613 4.56392 828.869 4.31032C828.448 4.89028 829.725 6.04328 830.414 6.03531ZM827.135 3.22713C827.576 2.76167 826.36 3.46393 827.135 3.22713ZM828.76 3.52941C830.817 3.31773 828.235 2.84084 828.345 3.51261L828.76 3.52941ZM825.725 1.68317C824.276 0.211778 828.449 1.93019 826.977 0.389509C825.738 -0.377192 824.549 1.25391 825.725 1.68317ZM844.31 9.47091C844.975 8.55541 841.569 8.23615 843.863 9.14663C844.075 9.2012 844.027 9.53414 844.31 9.47091ZM830.825 43.5655C830.678 44.017 830.587 44.7745 830.553 45.8378C830.553 46.0467 830.432 46.1513 830.189 46.1513C829.947 46.1513 829.778 46.06 829.683 45.8783C829.423 45.3867 829.177 45.0439 828.943 44.8481C828.666 44.6195 828.298 44.4812 827.839 44.4341C827.346 44.3735 826.118 44.3432 824.153 44.3432C823.703 44.3432 823.409 44.3804 823.271 44.4547C823.184 44.5015 823.141 44.6027 823.141 44.7577V49.3324C823.141 49.4873 823.266 49.5611 823.517 49.5547C824.288 49.5478 825.404 49.5069 826.866 49.4334C827.152 49.406 827.344 49.3338 827.444 49.2158C827.544 49.0981 827.641 48.7939 827.736 48.3021C827.796 48.0327 828 47.9283 828.346 47.9892C828.64 48.0364 828.766 48.1408 828.723 48.3021C828.48 49.2181 828.402 50.4097 828.488 51.8775C828.497 52.0521 828.355 52.1467 828.06 52.1602C827.817 52.1804 827.666 52.0793 827.606 51.857C827.382 51.0157 826.963 50.566 826.354 50.5085C825.744 50.4516 824.75 50.4229 823.375 50.4229C823.219 50.4229 823.141 50.4664 823.141 50.554V55.0986C823.141 55.4354 823.301 55.6646 823.621 55.7853C823.872 55.8863 824.413 55.9774 825.243 56.0581C825.668 56.0917 825.853 56.2369 825.802 56.4922C825.75 56.7145 825.369 56.8021 824.659 56.755C822.608 56.6268 820.916 56.6338 819.584 56.7756C819.212 56.8155 819.026 56.6977 819.026 56.4221C819.026 56.2466 819.212 56.1458 819.584 56.1189C820.432 56.0446 820.856 55.4655 820.856 54.382V45.7366C820.856 45.2928 820.754 44.9512 820.551 44.712C820.347 44.4729 819.969 44.2555 819.416 44.0605C819.069 43.9392 818.94 43.7745 819.026 43.5655C819.069 43.4379 819.139 43.3669 819.233 43.3537C819.32 43.3332 819.55 43.3468 819.921 43.3942C820.466 43.4614 821.752 43.4952 823.777 43.4952C826.165 43.4952 828.229 43.4545 829.969 43.374C830.548 43.3466 830.839 43.3838 830.839 43.4848C830.839 43.5122 830.834 43.5387 830.825 43.5655ZM839.243 56.3855C839.243 56.6549 839.048 56.7727 838.659 56.7389C837.465 56.6513 835.985 56.6644 834.22 56.7789C833.865 56.8063 833.647 56.7992 833.564 56.7593C833.482 56.7186 833.441 56.6078 833.441 56.4254C833.441 56.2643 833.676 56.1281 834.148 56.0166C834.62 55.9059 834.855 55.5741 834.855 55.0222V45.8824C834.855 45.3368 834.754 44.9363 834.551 44.6803C834.347 44.4244 833.99 44.2259 833.48 44.0849C833.211 44.0104 833.077 43.9061 833.077 43.7713C833.077 43.5694 833.272 43.418 833.661 43.317C834.25 43.1689 834.86 42.9404 835.492 42.6303C836.011 42.3878 836.34 42.267 836.478 42.267C836.798 42.267 836.959 42.4382 836.959 42.7817C836.959 42.7552 836.942 43.0918 836.906 43.7916C836.881 44.458 836.872 45.1144 836.881 45.7612L836.932 54.7794C836.932 55.1903 837.062 55.4884 837.322 55.6736C837.582 55.8586 838.028 55.9814 838.659 56.0418C839.048 56.0753 839.243 56.1898 839.243 56.3854V56.3855ZM850.983 55.79C850.983 55.9317 850.652 56.1451 849.991 56.4309C849.328 56.7173 848.798 56.8603 848.401 56.8603C848.063 56.8603 847.764 56.7327 847.505 56.4766C847.245 56.2208 847.063 56.0931 846.959 56.0931C846.882 56.0931 846.471 56.2312 845.726 56.5068C844.982 56.7831 844.233 56.9213 843.48 56.9213C842.771 56.9213 842.178 56.7593 841.702 56.4368C841.183 56.0796 840.923 55.5949 840.923 54.982C840.923 53.8173 842.637 52.9827 846.064 52.4777C846.652 52.3901 846.951 52.2049 846.959 51.9222L846.986 51.2757C847.038 50.1717 846.41 49.6198 845.103 49.6198C844.731 49.6198 844.378 49.8786 844.045 50.3969C843.712 50.9159 843.234 51.195 842.611 51.2357C841.901 51.289 841.546 51.0569 841.546 50.5386C841.546 50.2152 842.074 49.8388 843.13 49.4074C844.238 48.9565 845.302 48.7306 846.324 48.7306C848.08 48.7306 848.95 49.3808 848.932 50.6801L848.88 54.8405C848.872 55.2783 849.11 55.4969 849.594 55.4969C849.69 55.4969 849.872 55.4802 850.139 55.4465C850.408 55.4129 850.564 55.3959 850.607 55.3959C850.858 55.3959 850.983 55.5277 850.983 55.79ZM846.986 53.4878C846.994 53.3192 846.944 53.2077 846.836 53.1545C846.727 53.1006 846.557 53.0899 846.324 53.1237C844.238 53.4133 843.195 53.942 843.195 54.7094C843.195 55.4837 843.736 55.8707 844.817 55.8707C845.25 55.8707 845.696 55.8069 846.154 55.6793C846.691 55.5306 846.959 55.3526 846.959 55.1435L846.986 53.4878ZM860.634 54.6281C860.634 55.3418 860.281 55.9095 859.576 56.3301C858.871 56.751 857.908 56.9613 856.688 56.9613C855.874 56.9613 855.06 56.8941 854.247 56.7593C853.546 56.6381 853.139 56.5272 853.027 56.4262C852.957 56.3315 852.923 55.8709 852.923 55.0425C852.923 54.6857 853.027 54.5003 853.235 54.4871C853.442 54.4667 853.62 54.5545 853.767 54.7494C854.416 55.6316 855.463 56.0728 856.908 56.0728C858.128 56.0728 858.738 55.7425 858.738 55.0825C858.738 54.7936 858.6 54.5509 858.323 54.3558C858.02 54.1336 857.432 53.8743 856.558 53.578C855.294 53.1406 854.45 52.7569 854.026 52.4266C853.567 52.0767 853.338 51.6055 853.338 51.0127C853.338 50.2853 853.698 49.7203 854.416 49.3163C855.082 48.9255 855.974 48.7306 857.089 48.7306C857.791 48.7306 858.431 48.7739 859.011 48.8618C859.634 48.9494 859.959 49.0568 859.985 49.185C860.053 49.5616 860.197 50.1073 860.413 50.8213C860.439 50.9083 860.318 50.9791 860.05 51.033C859.764 51.0801 859.574 51.0429 859.478 50.9221C858.795 50.0532 857.93 49.6191 856.882 49.6191C855.697 49.6191 855.104 49.9153 855.104 50.5078C855.104 50.8379 855.264 51.1002 855.584 51.2953C855.87 51.4636 856.54 51.7266 857.596 52.0836C858.704 52.4538 859.457 52.7871 859.855 53.0831C860.375 53.4667 860.634 53.9822 860.634 54.6281ZM875.905 56.3956C875.905 56.6312 875.702 56.7559 875.295 56.7692C874.689 56.7762 873.897 56.8098 872.92 56.8702C872.435 56.9445 872.089 56.8976 871.881 56.7292C870.514 55.5847 869.354 54.3861 868.402 53.1335C868.324 53.0261 868.225 52.9723 868.103 52.9723C867.956 52.9723 867.701 53.0733 867.338 53.2754C866.931 53.45 866.728 53.6995 866.728 54.022C866.728 54.2514 866.736 54.581 866.754 55.0125C866.771 55.443 866.909 55.7255 867.169 55.8603C867.351 55.9551 867.771 56.0287 868.428 56.0827C868.835 56.1233 869.038 56.2411 869.038 56.4361C869.038 56.5911 869.006 56.6873 868.941 56.7237C868.876 56.7607 868.705 56.7692 868.428 56.749C867.563 56.6887 866.1 56.7223 864.041 56.8499C863.522 56.8836 863.24 56.833 863.197 56.6984C863.18 56.6516 863.171 56.584 863.171 56.4964C863.171 56.2882 863.435 56.1295 863.963 56.0224C864.439 55.9275 864.677 55.4934 864.677 54.7193V45.8925C864.677 45.3406 864.608 44.9569 864.469 44.7416C864.279 44.4653 863.88 44.2498 863.274 44.0949C862.989 44.0213 862.846 43.9168 862.846 43.7821C862.846 43.5863 863.05 43.4349 863.456 43.3277C864.11 43.1575 864.734 42.9232 865.312 42.6306C865.789 42.3886 866.083 42.2672 866.195 42.2672C866.55 42.2672 866.728 42.4418 866.728 42.7926C866.728 42.745 866.723 43.0788 866.714 43.7921C866.705 44.452 866.701 45.1119 866.702 45.7718L866.728 52.0935C866.728 52.2688 866.788 52.3558 866.909 52.3558C867.039 52.3558 867.238 52.2688 867.507 52.0935C868.225 51.6557 869.108 51.0836 870.154 50.3766C870.362 50.2084 870.466 50.0737 870.466 49.9727C870.466 49.7911 870.116 49.6626 869.415 49.5892C869.112 49.5616 868.969 49.4306 868.986 49.1949C869.012 48.9593 869.164 48.8583 869.44 48.8919C870.064 48.9595 870.973 48.9965 872.166 49.0035C872.997 49.0097 873.824 49.0133 874.646 49.0133C874.914 49.0203 875.048 49.1445 875.048 49.3872C875.048 49.6158 874.836 49.7406 874.413 49.761C873.746 49.7806 873.118 49.8984 872.53 50.1144C871.708 50.4033 870.829 50.9117 869.895 51.6391C869.826 51.6796 869.791 51.7301 869.791 51.7905C869.791 51.8846 869.938 52.1105 870.233 52.4673C871.314 53.7466 872.336 54.7123 873.296 55.3657C873.91 55.7763 874.486 55.9816 875.022 55.9816C875.421 55.9816 875.667 56.0034 875.762 56.0474C875.858 56.0912 875.905 56.2074 875.905 56.3956Z" fill="white"/>
</g>
<path d="M914.301 20.3683C914.222 20.3683 914.144 20.2119 914.222 20.0555L914.77 18.4918C914.848 18.3354 914.926 18.179 915.082 18.179H924.934C925.012 18.179 925.091 18.3354 925.012 18.4918L924.543 19.8992C924.465 20.0555 924.387 20.2119 924.231 20.2119L914.301 20.3683ZM910.156 25.3724C910.078 25.3724 910 25.216 910.078 25.0597L910.626 23.4959C910.704 23.3395 910.782 23.1831 910.938 23.1831H923.527C923.605 23.1831 923.683 23.3395 923.683 23.4959L923.449 25.0597C923.449 25.216 923.292 25.3724 923.214 25.3724H910.156ZM916.803 30.5329C916.724 30.5329 916.646 30.3765 916.724 30.2202L917.115 28.8128C917.194 28.6564 917.272 28.5 917.428 28.5H922.901C922.98 28.5 923.058 28.6564 923.058 28.8128L922.98 30.0638C922.98 30.2202 922.901 30.3765 922.823 30.3765L916.803 30.5329ZM945.42 19.2737L940.807 21.6193C940.416 21.7757 940.338 21.9321 940.025 20.9938C939.634 20.0555 939.321 19.43 938.696 18.9609C936.975 17.2407 935.255 17.7099 933.691 19.7428C931.815 22.0885 930.877 25.6852 930.877 30.2202C930.877 34.5988 932.44 38.1955 934.63 38.821C936.506 39.2901 938.07 38.0391 939.321 35.2243C939.556 34.5988 939.79 33.9732 940.103 33.1914H934.786C934.239 33.1914 934.082 32.4095 934.239 31.4712C934.63 29.751 935.255 26.9362 935.646 25.5288C935.724 25.216 935.959 24.5905 936.35 24.5905H946.358C946.28 26.1543 946.28 27.5617 946.202 29.1255C945.889 33.035 945.185 36.7881 943.934 39.9156C941.98 45.0761 939.399 48.3601 936.115 49.2984C933.379 50.0802 930.877 48.9856 928.687 45.7016C926.654 42.5741 925.482 38.5082 925.169 33.5041C924.778 27.5617 925.716 22.0885 927.515 17.3971C929.469 12.2366 932.049 8.95267 935.255 7.85802C937.835 6.91974 940.338 7.54526 942.527 10.5165C944.012 12.393 945.029 15.0514 945.733 18.3354C945.811 18.9609 945.733 19.1173 945.42 19.2737Z" fill="#00ACD7"/>
<path d="M954.49 49.7675C951.988 49.6111 949.72 48.2037 947.766 44.9197C946.124 42.1049 945.107 38.5082 944.794 34.286C944.325 28.0308 945.185 22.5576 947.062 17.7099C949.095 12.393 951.519 9.73456 954.803 8.48353C957.617 7.54526 960.276 8.01439 962.622 11.2983C964.811 14.2695 966.14 18.3354 966.531 23.6522C967 31.1584 965.906 37.1008 963.403 42.2613C961.605 46.0144 959.338 48.2037 956.836 49.2983C955.975 49.6111 955.194 49.6111 954.49 49.7675ZM961.058 27.5617C961.058 26.7798 961.058 26.3107 960.98 25.6852C960.51 20.2119 958.008 17.0843 955.35 18.3354C952.77 19.43 951.128 22.714 950.502 27.8745C950.033 32.0967 951.05 36.4753 953.004 38.3518C954.49 39.6029 956.054 39.4465 957.461 38.0391C959.729 35.8498 960.901 32.2531 961.058 27.5617Z" fill="#00ACD7"/>
<g clip-path="url(#clip8_212_3)">
<path d="M1057.78 34.1287C1057.44 33.125 1056.54 32.426 1055.38 32.2583C1054.84 32.1792 1054.21 32.2129 1053.47 32.3608C1052.18 32.6188 1051.23 32.717 1050.53 32.736C1053.16 28.4215 1055.31 23.5014 1056.54 18.87C1058.54 11.3811 1057.47 7.96941 1056.22 6.42625C1052.93 2.34166 1048.12 0.14738 1042.31 0.0802388C1039.22 0.043538 1036.5 0.636149 1035.08 1.06231C1033.76 0.836492 1032.34 0.710414 1030.86 0.687098C1028.06 0.643921 1025.6 1.23394 1023.49 2.44658C1022.32 2.06403 1020.45 1.52474 1018.29 1.18062C1013.2 0.371039 1009.1 1.00186 1006.11 3.0556C1002.47 5.54219 1000.79 9.86253 1001.1 15.8966C1001.2 17.8124 1002.31 23.6413 1004.05 29.1693C1005.05 32.3468 1006.11 34.9853 1007.22 37.0125C1008.78 39.8871 1010.46 41.5798 1012.34 42.1878C1013.39 42.528 1015.3 42.7664 1017.32 41.1407C1017.57 41.4404 1017.91 41.7381 1018.36 42.0146C1018.94 42.3654 1019.64 42.6521 1020.34 42.8221C1022.86 43.4341 1025.23 43.281 1027.25 42.4231C1027.26 42.7711 1027.27 43.1036 1027.28 43.3907C1027.29 43.8564 1027.3 44.313 1027.32 44.74C1027.44 47.6273 1027.64 49.8723 1028.24 51.4431C1028.28 51.5294 1028.32 51.6611 1028.37 51.8008C1028.67 52.6898 1029.17 54.1782 1030.44 55.3437C1031.76 56.5512 1033.36 56.9214 1034.82 56.9214C1035.55 56.9214 1036.25 56.8282 1036.86 56.7008C1039.05 56.2464 1041.53 55.5542 1043.33 53.0741C1045.03 50.7296 1045.85 47.1983 1046 41.6342C1046.02 41.4769 1046.04 41.3266 1046.06 41.1835L1046.09 40.8894L1046.49 40.9235L1046.6 40.9302C1048.82 41.0287 1051.55 40.5708 1053.22 39.8175C1054.54 39.223 1058.78 37.0553 1057.78 34.1287Z" fill="black"/>
<path d="M1053.97 34.6978C1047.35 36.0223 1046.89 33.8485 1046.89 33.8485C1053.89 23.7897 1056.81 11.0214 1054.29 7.89647C1047.41 -0.627854 1035.49 3.40363 1035.3 3.50812L1035.23 3.51935C1033.92 3.25596 1032.46 3.09923 1030.81 3.07311C1027.82 3.02561 1025.54 3.83476 1023.82 5.10288C1023.82 5.10288 1002.57 -3.38452 1003.56 15.7772C1003.77 19.8536 1009.59 46.6217 1016.52 38.5365C1019.06 35.58 1021.51 33.0802 1021.51 33.0802C1022.72 33.8639 1024.18 34.2637 1025.71 34.1201L1025.83 34.0225C1025.79 34.3895 1025.81 34.7486 1025.87 35.1737C1024.09 37.1095 1024.61 37.4493 1021.04 38.1624C1017.43 38.8848 1019.55 40.1706 1020.94 40.5069C1022.62 40.9143 1026.5 41.4916 1029.13 37.9254L1029.03 38.3323C1029.73 38.8761 1030.22 41.8692 1030.14 44.5827C1030.05 47.296 1030 49.1589 1030.55 50.6139C1031.1 52.069 1031.65 55.343 1036.35 54.3674C1040.27 53.5519 1042.31 51.4391 1042.59 47.9145C1042.79 45.4089 1043.24 45.7793 1043.27 43.5391L1043.64 42.4786C1044.06 39.0821 1043.7 37.9862 1046.12 38.4959L1046.71 38.546C1048.49 38.6244 1050.82 38.2684 1052.18 37.6525C1055.13 36.3282 1056.87 34.1169 1053.97 34.6978H1053.97Z" fill="#336791"/>
<path d="M1025.06 17.6002C1024.47 17.5197 1023.93 17.5942 1023.65 17.7949C1023.5 17.9078 1023.45 18.0387 1023.44 18.1287C1023.4 18.3672 1023.58 18.6311 1023.68 18.7671C1023.98 19.1522 1024.42 19.4169 1024.85 19.4752C1024.92 19.4838 1024.98 19.4877 1025.04 19.4877C1025.76 19.4877 1026.42 18.9422 1026.48 18.5395C1026.55 18.0352 1025.8 17.6989 1025.06 17.6002ZM1044.83 17.6162C1044.78 17.2209 1044.05 17.1082 1043.36 17.201C1042.67 17.2939 1042.01 17.5948 1042.06 17.991C1042.11 18.299 1042.68 18.8249 1043.36 18.8249C1043.42 18.8249 1043.48 18.8213 1043.53 18.8133C1043.99 18.7524 1044.32 18.4732 1044.48 18.3124C1044.72 18.0672 1044.86 17.7938 1044.83 17.6162Z" fill="white"/>
<path d="M1056.17 34.5475C1055.92 33.8072 1055.11 33.5691 1053.76 33.8394C1049.75 34.6416 1048.31 34.086 1047.84 33.7494C1050.96 29.1467 1053.52 23.5828 1054.91 18.3918C1055.56 15.9328 1055.92 13.6492 1055.95 11.7878C1055.98 9.74484 1055.63 8.24356 1054.89 7.32647C1051.9 3.62939 1047.52 1.64625 1042.22 1.59184C1038.58 1.55212 1035.5 2.45647 1034.9 2.71079C1033.64 2.40768 1032.27 2.22159 1030.78 2.19784C1028.04 2.15488 1025.68 2.79002 1023.72 4.0847C1022.87 3.77771 1020.67 3.04606 1017.98 2.62616C1013.34 1.90078 1009.64 2.45043 1007.01 4.26065C1003.86 6.42082 1002.41 10.2822 1002.69 15.7372C1002.79 17.5725 1003.87 23.2184 1005.57 28.6253C1007.81 35.7418 1010.24 39.7705 1012.81 40.5993C1013.11 40.6962 1013.45 40.764 1013.83 40.764C1014.77 40.764 1015.91 40.3555 1017.11 38.9657C1018.56 37.2741 1020.07 35.6236 1021.62 34.0162C1022.63 34.5404 1023.73 34.8331 1024.86 34.8625C1024.87 34.8912 1024.87 34.9199 1024.87 34.9484C1024.68 35.1737 1024.49 35.4022 1024.3 35.6339C1023.52 36.5991 1023.35 36.8001 1020.83 37.304C1020.11 37.4478 1018.2 37.8288 1018.17 39.125C1018.14 40.5412 1020.43 41.136 1020.69 41.199C1021.6 41.4192 1022.47 41.5278 1023.3 41.5278C1025.33 41.5278 1027.11 40.8819 1028.54 39.6321C1028.5 44.6809 1028.71 49.6558 1029.34 51.1715C1029.85 52.4124 1031.1 55.445 1035.05 55.4448C1035.63 55.4448 1036.27 55.3794 1036.97 55.2334C1041.1 54.3764 1042.89 52.6091 1043.58 48.713C1043.95 46.6308 1044.59 41.6586 1044.89 38.9916C1045.52 39.1826 1046.33 39.2701 1047.21 39.2698C1049.04 39.2698 1051.16 38.8923 1052.48 38.2953C1053.97 37.6244 1056.66 35.978 1056.17 34.5475ZM1046.35 16.5252C1046.34 17.3126 1046.23 18.0274 1046.11 18.7735C1045.98 19.5759 1045.85 20.4056 1045.82 21.4127C1045.78 22.3928 1045.91 23.4118 1046.03 24.3973C1046.28 26.3878 1046.53 28.437 1045.55 30.459C1045.39 30.1794 1045.25 29.8904 1045.12 29.5935C1045 29.3073 1044.73 28.8474 1044.37 28.211C1042.94 25.7335 1039.61 19.9317 1041.31 17.5643C1041.82 16.8596 1043.11 16.1351 1046.35 16.5252ZM1042.43 3.18618C1047.18 3.28786 1050.93 5.01086 1053.59 8.30703C1055.63 10.8353 1053.39 22.3393 1046.88 32.2639C1046.82 32.1832 1046.75 32.1028 1046.69 32.0227L1046.6 31.923C1048.28 29.2315 1047.96 26.5685 1047.66 24.2076C1047.54 23.2387 1047.43 22.3235 1047.46 21.4639C1047.49 20.5528 1047.61 19.7713 1047.73 19.0157C1047.88 18.0846 1048.03 17.1211 1047.99 15.9853C1048.02 15.8661 1048.03 15.7254 1048.02 15.5583C1047.91 14.4691 1046.63 11.2094 1044.01 8.2591C1042.58 6.64534 1040.5 4.83944 1037.65 3.6214C1038.88 3.37529 1040.55 3.1458 1042.43 3.18618ZM1015.85 37.9484C1014.53 39.4799 1013.62 39.1863 1013.33 39.09C1011.38 38.4613 1009.13 34.4778 1007.14 28.1609C1005.42 22.6951 1004.41 17.1988 1004.33 15.6576C1004.08 10.7833 1005.3 7.38627 1007.95 5.56072C1012.28 2.59011 1019.38 4.36816 1022.23 5.26992C1022.19 5.30921 1022.15 5.34591 1022.11 5.38585C1017.42 9.97217 1017.54 17.808 1017.55 18.2871C1017.55 18.4719 1017.56 18.7335 1017.58 19.0934C1017.67 20.4114 1017.82 22.8643 1017.41 25.6422C1017.04 28.2235 1017.86 30.7501 1019.67 32.5741C1019.85 32.7609 1020.05 32.9388 1020.25 33.1069C1019.45 33.9402 1017.7 35.783 1015.85 37.9484ZM1020.85 31.4733C1019.4 30.0031 1018.74 27.9582 1019.04 25.8624C1019.46 22.928 1019.31 20.3723 1019.22 18.9993C1019.21 18.8072 1019.2 18.6388 1019.19 18.506C1019.88 17.9177 1023.05 16.2705 1025.31 16.7728C1026.34 17.0019 1026.97 17.6832 1027.23 18.8551C1028.59 24.9222 1027.41 27.4509 1026.47 29.483C1026.27 29.9016 1026.09 30.2973 1025.93 30.7067L1025.81 31.0232C1025.5 31.8232 1025.22 32.5672 1025.04 33.2736C1023.5 33.2692 1021.99 32.6294 1020.85 31.4731V31.4733ZM1021.09 39.6554C1020.64 39.5462 1020.23 39.3564 1019.99 39.199C1020.19 39.1084 1020.55 38.9849 1021.16 38.8623C1024.13 38.2696 1024.59 37.8513 1025.59 36.6183C1025.82 36.3355 1026.08 36.0151 1026.44 35.6248L1026.44 35.6244C1026.98 35.0415 1027.22 35.1403 1027.67 35.3195C1028.03 35.4642 1028.38 35.9029 1028.52 36.3856C1028.59 36.6136 1028.67 37.0462 1028.42 37.383C1026.33 40.2232 1023.28 40.1867 1021.09 39.6554ZM1036.63 53.6778C1033 54.4325 1031.71 52.6352 1030.86 50.5806C1030.31 49.2542 1030.05 43.2728 1030.24 36.6673C1030.24 36.5795 1030.23 36.4946 1030.2 36.4147C1030.18 36.257 1030.15 36.101 1030.1 35.948C1029.82 34.9869 1029.12 34.1829 1028.3 33.8496C1027.97 33.7172 1027.36 33.4743 1026.63 33.6546C1026.79 33.0354 1027.06 32.3362 1027.35 31.5791L1027.47 31.2606C1027.61 30.9016 1027.78 30.5296 1027.96 30.1359C1028.95 28.0098 1030.3 25.0977 1028.84 18.5189C1028.29 16.0548 1026.45 14.8514 1023.67 15.131C1022 15.2983 1020.48 15.9507 1019.72 16.3249C1019.55 16.4052 1019.4 16.4829 1019.26 16.5585C1019.47 14.0758 1020.28 9.43591 1023.28 6.50027C1025.17 4.65227 1027.69 3.7395 1030.75 3.78872C1036.8 3.88457 1040.67 6.89145 1042.86 9.39726C1044.74 11.5564 1045.76 13.7314 1046.17 14.9046C1043.11 14.6025 1041.02 15.1887 1039.97 16.6524C1037.67 19.8363 1041.23 26.0159 1042.93 28.9858C1043.25 29.5301 1043.52 30.0005 1043.6 30.2004C1044.16 31.5074 1044.88 32.38 1045.4 33.0169C1045.57 33.212 1045.72 33.4014 1045.84 33.5667C1044.91 33.826 1043.25 34.4251 1043.4 37.4197C1043.28 38.9223 1042.41 45.9572 1041.96 48.4427C1041.38 51.7263 1040.13 52.9494 1036.63 53.678V53.6778ZM1051.79 36.8523C1050.84 37.2791 1049.26 37.5993 1047.75 37.6682C1046.08 37.7437 1045.24 37.4873 1045.04 37.3294C1044.94 35.4633 1045.66 35.2684 1046.42 35.062C1046.54 35.0296 1046.65 34.9979 1046.76 34.9599C1046.83 35.0149 1046.91 35.0695 1046.99 35.1231C1048.33 35.9797 1050.72 36.0721 1054.09 35.3975L1054.13 35.3903C1053.67 35.8025 1052.9 36.3556 1051.79 36.8523Z" fill="white"/>
</g>
<g clip-path="url(#clip9_212_3)">
<path fill-rule="evenodd" clip-rule="evenodd" d="M1092 0H1149V57H1092V0Z" fill="white"/>
<path fill-rule="evenodd" clip-rule="evenodd" d="M1094.51 37.9181H1096.24V31.11L1098.91 37.0472C1099.22 37.7593 1099.65 38.0101 1100.49 38.0101C1101.34 38.0101 1101.76 37.7593 1102.07 37.0472L1104.74 31.11V37.9181H1106.46V31.123C1106.46 30.4635 1106.19 30.1462 1105.65 29.9747C1104.34 29.5658 1103.46 29.9221 1103.06 30.8063L1100.45 36.6513L1097.92 30.8063C1097.54 29.9221 1096.64 29.5658 1095.33 29.9747C1094.78 30.1462 1094.51 30.4632 1094.51 31.123V37.9181H1094.51ZM1107.89 32.3762H1109.61V36.1234C1109.6 36.3343 1109.67 36.8095 1110.62 36.8228C1111.1 36.8355 1114.33 36.8228 1114.36 36.8228V32.3629H1116.09C1116.1 32.3629 1116.09 38.4451 1116.09 38.4717C1116.1 39.9757 1114.23 40.2921 1113.37 40.3187H1107.93V39.1577C1107.93 39.1577 1113.36 39.171 1113.37 39.1577C1114.48 39.0522 1114.35 38.4983 1114.35 38.3135V37.8646H1110.69C1108.99 37.8386 1107.91 37.0993 1107.89 36.2417C1107.89 36.1628 1107.93 32.4161 1107.89 32.3762ZM1144.95 28.0618C1143.9 28.0355 1143.09 28.1277 1142.39 28.4311C1142.2 28.5104 1141.89 28.5104 1141.85 28.7611C1141.96 28.8661 1141.99 29.0379 1142.07 29.1834C1142.24 29.4475 1142.51 29.8032 1142.76 29.988C1143.03 30.1995 1143.31 30.4103 1143.6 30.5951C1144.12 30.9115 1144.7 31.0831 1145.19 31.4004C1145.5 31.5846 1145.79 31.8226 1146.08 32.0335C1146.21 32.139 1146.31 32.2975 1146.49 32.3632V32.3372C1146.39 32.2183 1146.37 32.0468 1146.29 31.9143L1145.89 31.5186C1145.51 31.0174 1145.02 30.5685 1144.51 30.1995C1144.1 29.9091 1143.17 29.5001 1143 29.0252C1142.99 29.0119 1142.98 29.0119 1142.98 28.9986C1143.27 28.9587 1143.61 28.8537 1143.87 28.7872C1144.32 28.6689 1144.73 28.6949 1145.19 28.5763C1145.4 28.5101 1145.61 28.4574 1145.83 28.3915V28.2726C1145.59 28.0352 1145.43 27.7054 1145.17 27.4943C1144.49 26.9138 1143.75 26.3464 1143 25.8715C1142.58 25.5944 1142.07 25.4229 1141.62 25.1987C1141.47 25.1328 1141.21 25.0931 1141.1 24.9613C1140.86 24.6709 1140.75 24.2882 1140.56 23.9452C1140.17 23.1927 1139.81 22.4269 1139.48 21.6493C1139.26 21.1348 1139.1 20.6202 1138.82 20.145C1137.45 17.9021 1135.98 16.5433 1133.7 15.2105C1133.21 14.9334 1132.63 14.8148 1132.01 14.6696C1131.68 14.643 1131.35 14.63 1131.02 14.6034C1130.82 14.5242 1130.61 14.2737 1130.42 14.1548C1129.66 13.6799 1127.72 12.6375 1127.17 14.0096C1126.81 14.8672 1127.7 15.7117 1128.01 16.1473C1128.24 16.4507 1128.51 16.794 1128.67 17.1368C1128.78 17.3609 1128.79 17.5853 1128.88 17.8228C1129.11 18.4166 1129.29 19.063 1129.57 19.6039C1129.72 19.8809 1129.87 20.1713 1130.06 20.4221C1130.16 20.5673 1130.36 20.6332 1130.39 20.8707C1130.2 21.1345 1130.19 21.5304 1130.09 21.8601C1129.62 23.3511 1129.79 25.1851 1130.48 26.2931C1130.69 26.6229 1131.18 27.3485 1131.87 27.0717C1132.46 26.821 1132.33 26.082 1132.5 25.4093C1132.54 25.2641 1132.51 25.1585 1132.59 25.0529V25.0792C1132.76 25.4486 1132.95 25.8049 1133.13 26.161C1133.53 26.8077 1134.24 27.4937 1134.85 27.942C1135.15 28.1795 1135.4 28.5887 1135.81 28.7203V28.6937H1135.77C1135.69 28.5754 1135.57 28.5225 1135.48 28.4299C1135.24 28.1925 1134.98 27.9021 1134.78 27.6383C1134.24 26.8993 1133.75 26.0814 1133.3 25.2369C1133.09 24.8279 1132.91 24.3793 1132.74 23.9703C1132.67 23.8121 1132.67 23.5747 1132.53 23.4821C1132.33 23.7855 1132.05 24.0363 1131.89 24.3926C1131.66 24.9601 1131.62 25.6591 1131.54 26.3718C1131.48 26.3981 1131.5 26.3848 1131.47 26.4114C1131.05 26.3059 1130.9 25.8703 1130.74 25.5009C1130.36 24.5641 1130.28 23.0601 1130.63 21.9781C1130.72 21.701 1131.13 20.8302 1130.96 20.5664C1130.88 20.3156 1130.63 20.1574 1130.48 19.9596C1130.3 19.7222 1130.12 19.4054 1129.99 19.1284C1129.68 18.3894 1129.53 17.5715 1129.19 16.8328C1129.02 16.4764 1128.75 16.1201 1128.53 15.8167C1128.28 15.4604 1128 15.2099 1127.8 14.7876C1127.74 14.6424 1127.64 14.405 1127.74 14.2465C1127.78 14.1409 1127.82 14.1013 1127.92 14.0617C1128.09 13.9298 1128.58 14.1146 1128.77 14.1802C1129.24 14.3914 1129.65 14.5762 1130.06 14.8533C1130.26 14.9852 1130.46 15.2356 1130.69 15.3019H1130.96C1131.38 15.3941 1131.85 15.3282 1132.25 15.4471C1132.95 15.6579 1133.58 15.9879 1134.15 16.3576C1135.89 17.4526 1137.3 19.0095 1138.28 20.8698C1138.44 21.1732 1138.5 21.4503 1138.64 21.767C1138.91 22.4137 1139.27 23.0731 1139.55 23.6932C1139.81 24.3267 1140.09 24.9601 1140.47 25.4743C1140.68 25.7514 1141.47 25.8966 1141.83 26.0415C1142.08 26.1471 1142.49 26.2656 1142.73 26.4111C1143.19 26.6749 1143.62 27.0049 1144.06 27.3083C1144.27 27.455 1144.93 27.7847 1144.95 28.0618Z" fill="#00678C"/>
<path fill-rule="evenodd" clip-rule="evenodd" d="M1131.5 16.5964C1131.31 16.5965 1131.13 16.6187 1130.96 16.6627V16.689H1131C1131.1 16.9001 1131.29 17.0453 1131.42 17.2298C1131.51 17.441 1131.62 17.6521 1131.71 17.8633L1131.75 17.8236C1131.93 17.7051 1132.01 17.4939 1132.01 17.1642C1131.95 17.0849 1131.93 16.9927 1131.87 16.9001C1131.77 16.7679 1131.62 16.702 1131.5 16.5964Z" fill="#00678C"/>
<path fill-rule="evenodd" clip-rule="evenodd" d="M1117.42 37.918H1122.37C1122.95 37.918 1123.51 37.7991 1123.96 37.5877C1124.7 37.2453 1125.07 36.7831 1125.07 36.1763V34.9097C1125.07 34.4218 1124.65 33.9469 1123.84 33.6432C1123.41 33.4717 1122.88 33.3925 1122.37 33.3925H1120.28C1119.58 33.3925 1119.25 33.181 1119.17 32.7197C1119.16 32.6671 1119.16 32.6141 1119.16 32.5615V31.7829C1119.16 31.7303 1119.16 31.6906 1119.17 31.638C1119.25 31.2817 1119.44 31.1761 1120.04 31.1235C1120.1 31.1235 1120.16 31.1102 1120.22 31.1102H1125.14V29.9625H1120.3C1119.6 29.9625 1119.24 30.0151 1118.91 30.1074C1117.88 30.4371 1117.43 30.9386 1117.43 31.8228V32.8256C1117.43 33.6042 1118.32 34.2636 1119.78 34.4218C1119.95 34.4218 1120.11 34.4351 1120.28 34.4351H1122.06C1122.13 34.4351 1122.2 34.4351 1122.25 34.4484C1122.8 34.5011 1123.03 34.5933 1123.2 34.7909C1123.29 34.8964 1123.33 34.989 1123.33 35.1079V36.1106C1123.33 36.2295 1123.25 36.388 1123.08 36.5196C1122.93 36.6518 1122.68 36.731 1122.35 36.7571C1122.29 36.7571 1122.24 36.7704 1122.17 36.7704H1117.42V37.918ZM1135.81 35.9119C1135.81 37.0995 1136.68 37.7589 1138.46 37.8911C1138.62 37.9044 1138.79 37.9177 1138.95 37.9177H1143.44V36.7695H1138.92C1137.91 36.7695 1137.53 36.5187 1137.53 35.9119V29.9619H1135.81V35.9119H1135.81ZM1126.17 35.9779V31.8882C1126.17 30.8458 1126.89 30.2127 1128.34 30.0146C1128.49 29.9879 1128.66 29.9879 1128.81 29.9879H1132.08C1132.24 29.9879 1132.38 29.9879 1132.55 30.0146C1133.99 30.2127 1134.73 30.8458 1134.73 31.8882V35.9779C1134.73 36.8227 1134.41 37.271 1133.7 37.5614L1135.4 39.092H1133.4L1132.02 37.8648L1130.64 37.944H1128.8C1128.49 37.944 1128.16 37.9047 1127.79 37.7991C1126.69 37.5085 1126.17 36.928 1126.17 35.9779ZM1128.03 35.8729C1128.03 35.9388 1128.04 35.9912 1128.05 36.0577C1128.16 36.5323 1128.61 36.7964 1129.28 36.7964H1130.85L1129.41 35.5032H1131.42L1132.67 36.6249C1132.9 36.506 1133.05 36.3212 1133.11 36.0837C1133.12 36.0178 1133.12 35.9654 1133.12 35.9122V31.9807C1133.12 31.9408 1133.12 31.8885 1133.11 31.8352C1133 31.3869 1132.55 31.1365 1131.89 31.1365H1129.28C1128.52 31.1365 1128.03 31.4662 1128.03 31.9807L1128.03 35.8729ZM1144.23 37.918H1144.48V36.9679H1144.82V36.7698H1143.89V36.9679H1144.23V37.918ZM1146.16 37.918H1146.38V36.7698H1146.04L1145.73 37.5617L1145.43 36.7698H1145.07V37.918H1145.31V37.0471L1145.64 37.918H1145.81L1146.14 37.0471H1146.16V37.918H1146.16Z" fill="#CE8B2C"/>
<path fill-rule="evenodd" clip-rule="evenodd" d="M1095.56 27.2438L1094.59 22.7842H1095.08L1095.64 25.7132C1095.7 26.0166 1095.76 26.32 1095.79 26.6234L1095.97 25.7922L1096.67 22.7839H1097.23L1097.76 25.0402C1097.89 25.5943 1097.98 26.1219 1098.05 26.6234C1098.09 26.3333 1098.16 26.0033 1098.24 25.6473L1098.8 22.7842H1099.3L1098.29 27.2438H1097.83L1097.05 23.8529L1096.93 23.3251C1096.9 23.5229 1096.86 23.6947 1096.82 23.8529L1096.05 27.2438H1095.56ZM1099.61 25.0801C1099.61 24.3148 1099.78 23.7343 1100.11 23.3251C1100.44 22.9161 1100.86 22.7183 1101.36 22.7183C1101.68 22.7183 1101.98 22.7975 1102.25 22.982C1102.51 23.1666 1102.72 23.4306 1102.88 23.7737C1103.03 24.1297 1103.1 24.5387 1103.1 25.0269C1103.1 25.6866 1102.96 26.2144 1102.66 26.6364C1102.33 27.0983 1101.89 27.3225 1101.36 27.3225C1100.82 27.3225 1100.39 27.085 1100.06 26.6231C1099.75 26.1884 1099.61 25.6739 1099.61 25.0801ZM1100.11 25.0801C1100.11 25.6343 1100.23 26.0565 1100.47 26.3599C1100.72 26.6633 1101.01 26.8218 1101.35 26.8218C1101.71 26.8218 1102.01 26.6633 1102.25 26.3599C1102.48 26.0565 1102.6 25.6079 1102.6 25.0142C1102.6 24.6185 1102.55 24.2885 1102.42 23.9854C1102.33 23.7479 1102.18 23.5631 1102 23.4312C1101.81 23.2934 1101.59 23.2192 1101.36 23.2201C1100.99 23.2201 1100.69 23.365 1100.47 23.6687C1100.23 23.9718 1100.11 24.4467 1100.11 25.0801ZM1103.71 27.2438V22.7842H1105.33C1105.66 22.7842 1105.91 22.8238 1106.07 22.9161C1106.24 22.9953 1106.38 23.1272 1106.47 23.3251C1106.57 23.5229 1106.63 23.7473 1106.63 23.9978C1106.63 24.3411 1106.55 24.6049 1106.36 24.816C1106.19 25.0272 1105.94 25.1591 1105.6 25.225C1105.74 25.3043 1105.84 25.3835 1105.91 25.4625C1106.06 25.634 1106.18 25.8188 1106.3 26.0296L1106.93 27.2435H1106.32L1105.84 26.3197C1105.64 25.9634 1105.51 25.7129 1105.4 25.594C1105.31 25.4622 1105.22 25.3696 1105.12 25.33C1105.03 25.2904 1104.91 25.264 1104.75 25.264H1104.2V27.2432H1103.71V27.2438ZM1104.2 24.7501H1105.23C1105.45 24.7501 1105.62 24.7238 1105.74 24.6708C1105.86 24.6182 1105.95 24.5256 1106.03 24.4201C1106.1 24.3012 1106.12 24.156 1106.12 23.9978C1106.12 23.7737 1106.06 23.6021 1105.93 23.4703C1105.8 23.3384 1105.61 23.2724 1105.35 23.2724H1104.2L1104.2 24.7501ZM1107.38 27.2438V22.7842H1107.87V25.0009L1109.67 22.7842H1110.33L1108.79 24.5919L1110.4 27.2438H1109.75L1108.46 25.0009L1107.87 25.7002V27.2438H1107.38ZM1110.62 25.8058L1111.09 25.7662C1111.11 26.0036 1111.17 26.2014 1111.26 26.3333C1111.34 26.4785 1111.47 26.5841 1111.63 26.663C1111.79 26.7553 1111.97 26.7949 1112.17 26.7949C1112.46 26.7949 1112.67 26.7157 1112.83 26.5841C1112.99 26.4389 1113.07 26.2541 1113.07 26.0299C1113.07 25.898 1113.04 25.7925 1112.99 25.6869C1112.93 25.5946 1112.84 25.5154 1112.72 25.4494C1112.6 25.3835 1112.35 25.2912 1111.97 25.1857C1111.63 25.0801 1111.38 24.9745 1111.23 24.869C1111.08 24.7748 1110.97 24.6426 1110.89 24.4863C1110.81 24.3278 1110.77 24.1433 1110.77 23.9455C1110.77 23.5758 1110.89 23.2857 1111.11 23.0613C1111.35 22.8238 1111.67 22.7183 1112.06 22.7183C1112.33 22.7183 1112.56 22.7709 1112.77 22.8765C1112.97 22.982 1113.13 23.1402 1113.25 23.3384C1113.36 23.5579 1113.42 23.8027 1113.42 24.0507L1112.96 24.0904C1112.95 23.8003 1112.85 23.5891 1112.71 23.4439C1112.55 23.2987 1112.35 23.2328 1112.08 23.2328C1111.8 23.2328 1111.59 23.2987 1111.45 23.4176C1111.38 23.474 1111.33 23.5463 1111.29 23.6287C1111.25 23.7111 1111.23 23.8014 1111.23 23.8925C1111.23 24.0773 1111.28 24.2092 1111.39 24.3148C1111.49 24.4071 1111.73 24.5126 1112.1 24.6182C1112.47 24.7105 1112.72 24.803 1112.87 24.869C1113.09 24.9875 1113.26 25.1327 1113.37 25.3176C1113.49 25.5024 1113.54 25.7265 1113.54 25.9773C1113.54 26.2226 1113.48 26.4639 1113.35 26.6763C1113.24 26.8875 1113.08 27.046 1112.87 27.1513C1112.67 27.2698 1112.42 27.3228 1112.13 27.3228C1111.68 27.3228 1111.31 27.1909 1111.05 26.9138C1110.78 26.6367 1110.64 26.2674 1110.62 25.8058ZM1116.4 27.2438L1115.44 22.7842H1115.93L1116.48 25.7132C1116.55 26.0166 1116.6 26.32 1116.64 26.6234L1116.81 25.7922L1117.51 22.7839H1118.08L1118.61 25.0402C1118.73 25.5626 1118.83 26.091 1118.9 26.6234C1118.94 26.3333 1119 26.0033 1119.07 25.6473L1119.65 22.7842H1120.15L1119.13 27.2438H1118.67L1117.89 23.8529L1117.78 23.3251C1117.75 23.5229 1117.71 23.6947 1117.67 23.8529L1116.89 27.2438H1116.4ZM1120.68 27.2438V22.7842H1121.17V27.2438H1120.68ZM1122.95 27.2438V23.312H1121.75V22.7842H1124.64V23.312H1123.42V27.2438H1122.95ZM1125.11 27.2438V22.7842H1125.6V24.6182H1127.5V22.7842H1127.99V27.2438H1127.5V25.146H1125.6V27.2438H1125.11Z" fill="#00678C"/>
</g>
<defs>
<linearGradient id="paint0_linear_212_3" x1="1274.43" y1="510.795" x2="4103.27" y2="3300.21" gradientUnits="userSpaceOnUse">
<stop stop-color="#387EB8"/>
<stop offset="1" stop-color="#366994"/>
</linearGradient>
<linearGradient id="paint1_linear_212_3" x1="1549.22" y1="887.483" x2="4586.51" y2="3747.24" gradientUnits="userSpaceOnUse">
<stop stop-color="#FFE052"/>
<stop offset="1" stop-color="#FFC331"/>
</linearGradient>
<clipPath id="clip0_212_3">
<rect width="57" height="57" fill="white"/>
</clipPath>
<clipPath id="clip1_212_3">
<rect width="57" height="57" fill="white" transform="translate(91)"/>
</clipPath>
<clipPath id="clip2_212_3">
<rect width="57" height="57" fill="white" transform="translate(182)"/>
</clipPath>
<clipPath id="clip3_212_3">
<rect width="57" height="57" fill="white" transform="translate(273)"/>
</clipPath>
<clipPath id="clip4_212_3">
<rect width="57" height="57" fill="white" transform="translate(364)"/>
</clipPath>
<clipPath id="clip5_212_3">
<rect width="57" height="57" fill="white" transform="translate(455)"/>
</clipPath>
<clipPath id="clip6_212_3">
<rect width="57" height="57" fill="white" transform="translate(728)"/>
</clipPath>
<clipPath id="clip7_212_3">
<rect width="57" height="57" fill="white" transform="translate(819)"/>
</clipPath>
<clipPath id="clip8_212_3">
<rect width="57" height="57" fill="white" transform="translate(1001)"/>
</clipPath>
<clipPath id="clip9_212_3">
<rect width="57" height="57" fill="white" transform="translate(1092)"/>
</clipPath>
</defs>
</svg>
